<svg version="1.1" id="Layer_1" xmlns="http://www.w3.org/2000/svg" xmlns:xlink="http://www.w3.org/1999/xlink" x="0px" y="0px"
	 width="100%" viewBox="0 0 500 500" enable-background="new 0 0 500 500" xml:space="preserve">
<path fill="#000101" opacity="1.000000" stroke="none" 
	d="
M1.000000,227.000000 
	C1.000000,151.699677 1.000000,76.399361 1.000000,1.049518 
	C167.560608,1.049518 334.121216,1.049518 501.000000,1.049518 
	C501.000000,91.353981 501.000000,181.708328 500.637848,272.800781 
	C473.800140,274.214844 447.869843,271.945435 423.639526,259.291260 
	C423.435150,259.193237 423.005127,259.049927 422.840088,258.769165 
	C421.426971,257.683228 420.178864,256.878052 418.745392,255.843536 
	C417.718872,255.118744 416.877686,254.623306 415.917450,253.888885 
	C415.498077,253.475891 415.197784,253.301865 414.913452,253.091827 
	C414.929382,253.055801 414.867004,253.103943 414.745239,252.847260 
	C414.031372,252.143814 413.439331,251.697067 412.653076,250.982117 
	C410.590271,248.848404 408.721649,246.982910 406.743591,244.814301 
	C405.561615,243.224319 404.489075,241.937439 403.227112,240.818649 
	C403.162476,240.875031 403.287231,240.763306 403.312286,240.346512 
	C402.453522,239.047668 401.694458,238.053894 400.967682,237.031250 
	C401.000000,237.002380 400.931610,237.054428 400.879059,236.694031 
	C399.143402,232.894577 397.460297,229.455505 395.710602,225.704971 
	C395.496429,224.995544 395.348846,224.597565 395.281982,223.817917 
	C394.012604,216.225983 392.662506,209.015732 391.126129,200.810669 
	C387.011475,205.152435 383.195343,209.179230 379.313660,213.219635 
	C379.248138,213.233261 379.189117,213.353363 378.924988,213.432632 
	C378.343658,213.944855 378.026428,214.377808 377.756531,214.819504 
	C377.803894,214.828247 377.821228,214.733505 377.548187,214.831970 
	C377.061951,215.244415 376.848724,215.558365 376.380157,216.031464 
	C375.121948,217.175354 374.119110,218.160110 372.786224,219.211624 
	C370.525269,221.059830 368.594360,222.841278 366.757568,224.792099 
	C366.851654,224.961487 366.680420,224.616119 366.353455,224.731598 
	C359.585205,229.505020 353.143890,234.162964 346.533630,238.891647 
	C346.364685,238.962402 346.097687,239.213257 345.786957,239.237961 
	C344.679535,239.869034 343.882874,240.475403 343.058533,241.048889 
	C343.030884,241.015991 343.062775,241.095505 342.701843,241.138428 
	C340.699341,241.981674 339.060242,242.787064 337.415863,243.581604 
	C320.797760,251.611069 303.611359,255.614258 285.308289,250.391251 
	C280.164246,248.923309 275.218231,246.761551 270.181366,244.918030 
	C269.839722,245.237610 269.498108,245.557205 269.156464,245.876801 
	C271.098602,248.503357 273.040771,251.129913 275.178711,254.019470 
	C276.278168,255.497025 277.181854,256.711548 278.081909,258.277954 
	C283.073730,263.727356 288.069183,268.824829 293.033539,273.959320 
	C293.002441,273.996338 293.072876,273.930237 293.205261,274.232330 
	C295.261993,275.972595 297.186371,277.410767 299.101898,278.880859 
	C299.093079,278.912811 299.152832,278.884094 299.299377,279.183044 
	C301.550476,280.772247 303.655060,282.062500 305.766510,283.305298 
	C305.773376,283.257843 305.710205,283.329987 305.865295,283.630463 
	C309.379517,285.574493 312.738708,287.218079 316.309509,289.017822 
	C317.013977,289.349548 317.506836,289.525116 318.215240,289.917358 
	C319.005768,290.281372 319.580719,290.428741 320.430725,290.711182 
	C321.463837,291.139465 322.221924,291.432709 323.239624,291.982025 
	C338.813171,298.762939 355.035858,301.404907 371.437256,301.450562 
	C385.916290,301.490875 400.400604,299.620880 415.231201,298.597961 
	C416.033600,298.508850 416.487396,298.416168 417.342834,298.418427 
	C442.669739,294.643402 466.704102,287.549713 490.262238,278.660278 
	C493.688293,277.367493 497.413330,276.867065 501.000000,276.000000 
	C501.000000,350.934082 501.000000,425.868164 501.000000,501.000000 
	C410.312531,501.000000 319.624939,501.000000 228.530640,500.534485 
	C228.158493,499.237244 228.238937,498.404510 228.220764,497.573944 
	C227.792435,478.000885 228.817245,458.612579 235.468704,439.929413 
	C244.904541,413.425140 262.566528,396.612885 291.143860,392.649445 
	C293.986908,392.255157 296.826630,391.837280 299.839355,391.405762 
	C299.429291,390.532654 299.313232,390.005737 298.996796,389.664825 
	C298.093689,388.691803 297.103943,387.799683 296.157257,386.866547 
	C281.155640,372.079834 267.457489,356.261475 257.990936,337.248230 
	C249.644958,320.485535 246.154739,302.992554 251.467026,284.532501 
	C252.814545,279.849945 254.798279,275.350494 256.489655,270.766907 
	C256.123230,270.378937 255.756821,269.990936 255.390396,269.602936 
	C249.011200,274.454285 242.207733,278.843292 236.327728,284.238678 
	C213.337601,305.334015 203.468964,332.597076 200.968353,362.895996 
	C198.105011,397.590027 204.194427,431.238464 214.299820,464.249115 
	C218.091354,476.634674 222.741364,488.757416 227.000000,501.000000 
	C151.732880,501.000000 76.465759,501.000000 1.000000,501.000000 
	C1.000000,410.645874 1.000000,320.291595 1.404625,229.405548 
	C3.949532,228.536804 6.089812,228.199860 8.498567,227.874695 
	C9.126764,227.890152 9.486488,227.893784 10.260031,227.995178 
	C13.475343,228.214096 16.276834,228.335281 19.509890,228.477875 
	C21.958393,228.583786 23.975334,228.668289 26.320086,228.998505 
	C29.217266,229.259354 31.786636,229.274475 34.678070,229.334976 
	C35.644810,229.467041 36.289486,229.553741 37.233246,229.880219 
	C40.412151,230.472549 43.291981,230.825089 46.407345,231.225540 
	C46.957989,231.333847 47.275475,231.376587 47.813488,231.652374 
	C49.056297,232.108856 50.080948,232.314621 51.423744,232.562622 
	C52.164700,232.670639 52.587509,232.736420 53.265694,232.985077 
	C54.137451,233.231308 54.753830,233.294708 55.631367,233.423859 
	C56.238426,233.585068 56.584332,233.680527 57.152893,234.013855 
	C57.996780,234.368011 58.618000,234.484268 59.458748,234.666504 
	C59.678280,234.732452 60.118423,234.860718 60.258686,235.017761 
	C60.398949,235.174805 60.799194,235.304581 60.799194,235.304581 
	C60.799194,235.304581 61.209461,235.211334 61.493877,235.313675 
	C62.160797,235.542923 62.543304,235.669815 63.150448,236.036697 
	C64.007217,236.400635 64.639351,236.524582 65.454559,236.713867 
	C65.637627,236.779221 66.005981,236.903534 66.224892,237.140961 
	C67.235565,237.676514 68.027328,237.974670 69.031616,238.385223 
	C69.536697,238.628769 69.826889,238.764938 70.323929,239.169037 
	C73.408691,240.881165 76.284248,242.330383 79.171379,243.799042 
	C79.182953,243.818466 79.224937,243.835297 79.383018,244.118179 
	C81.057198,245.249176 82.573296,246.097290 84.257301,247.107742 
	C84.658272,247.476700 84.895973,247.677856 85.213287,248.109589 
	C85.485336,248.648132 85.764343,248.802307 86.139465,248.824402 
	C86.153633,248.840637 86.194305,248.854935 86.289215,249.054169 
	C86.597977,249.496368 86.864616,249.591766 87.475571,249.723145 
	C102.980255,263.013672 109.204803,280.322968 110.042152,300.897400 
	C111.767235,299.281281 112.368835,298.743164 112.942375,298.176605 
	C128.593567,282.716705 144.720047,267.884216 164.772232,258.103394 
	C185.895599,247.800079 207.244278,245.203629 229.063843,255.944748 
	C229.745087,256.280090 230.526489,256.411926 231.934860,256.846497 
	C231.446655,255.496841 231.301086,254.728302 230.922256,254.100540 
	C220.812714,237.348007 207.412384,223.967575 189.893967,215.082840 
	C158.436600,199.128769 125.031136,198.443542 90.679924,202.875244 
	C87.546219,203.271133 84.756538,203.756866 81.674103,204.295486 
	C80.992416,204.426132 80.603477,204.503906 79.805702,204.481689 
	C76.574585,205.000290 73.752312,205.618851 70.661949,206.308945 
	C70.034676,206.469131 69.675491,206.557785 68.914459,206.544586 
	C63.650288,207.697372 58.787968,208.951996 53.661865,210.272614 
	C53.046722,210.427948 52.695366,210.517319 51.979797,210.509369 
	C49.603596,211.103912 47.591614,211.795792 45.329697,212.535477 
	C44.748928,212.658432 44.418087,212.733582 43.801506,212.720825 
	C41.861355,213.256744 40.206940,213.880554 38.296005,214.553070 
	C37.697495,214.666656 37.355503,214.731522 36.719269,214.690033 
	C33.266613,215.800858 30.108202,217.018021 26.681465,218.315582 
	C26.058445,218.512756 25.703753,218.629562 25.004852,218.677368 
	C23.427095,219.142487 22.193544,219.676605 20.670639,220.307098 
	C19.992193,220.521683 19.603100,220.639862 19.015753,220.710876 
	C18.514585,220.692139 18.308207,220.848160 17.945419,221.232666 
	C17.525837,221.405594 17.359196,221.477615 16.832842,221.569580 
	C13.670602,222.759903 10.868073,223.930313 8.056926,225.080353 
	C8.048308,225.059982 8.083845,225.097870 7.710566,225.093445 
	C5.224858,225.726013 3.112430,226.363007 1.000000,227.000000 
M101.841568,69.817146 
	C102.122185,70.004204 102.402802,70.191269 102.720245,70.295044 
	C102.720245,70.295044 102.640503,70.339012 102.831726,70.814774 
	C103.105507,71.009094 103.379280,71.203407 103.756889,71.242119 
	C103.756889,71.242119 103.621254,71.370956 103.824341,71.838570 
	C104.100922,72.025620 104.377502,72.212669 104.653587,72.332420 
	C104.653587,72.332420 104.587341,72.344299 104.788185,72.881134 
	C105.215187,73.237610 105.642189,73.594093 106.284302,74.364143 
	C106.468666,74.623604 106.704247,74.822372 107.141022,75.585670 
	C108.135796,76.659386 109.130569,77.733109 110.116425,78.878479 
	C110.116425,78.878479 110.188080,78.887352 110.327698,79.419014 
	C110.739639,79.771133 111.151573,80.123260 111.823914,80.027138 
	C111.732262,80.174721 111.640602,80.322304 111.814873,81.045128 
	C112.746101,82.144669 113.677330,83.244209 114.993469,84.047249 
	C114.993469,84.047249 114.604713,84.335510 114.805420,84.946480 
	C115.737564,86.079475 116.669708,87.212471 117.984520,88.097649 
	C117.984520,88.097649 117.597511,88.333572 117.788528,88.922462 
	C118.395676,89.723976 119.002823,90.525490 119.997864,91.006409 
	C119.868713,91.112595 119.739563,91.218788 119.839447,91.990288 
	C122.101532,95.867966 124.574242,99.639702 126.587753,103.642426 
	C133.752869,117.886230 138.396774,132.873871 135.159302,148.864304 
	C133.436478,157.373672 129.520523,165.439011 126.791771,173.787979 
	C126.791771,173.787979 126.611839,173.671829 126.084877,174.017014 
	C125.618317,174.944214 125.151749,175.871414 124.754066,176.799164 
	C124.754066,176.799164 124.719627,176.739532 124.153389,177.015686 
	C123.474800,178.036682 122.796211,179.057663 121.687790,180.338013 
	C121.493843,180.606781 121.299896,180.875549 120.520683,181.411407 
	C119.125404,182.993805 117.730118,184.576218 115.578217,187.016708 
	C118.005768,186.879654 119.073502,186.819366 120.861366,186.829590 
	C121.584801,186.829559 122.308235,186.829529 123.726936,187.212219 
	C128.204437,187.228928 132.698135,187.003891 137.156723,187.302673 
	C161.201263,188.914047 184.821030,192.276352 206.001846,205.000275 
	C206.001846,205.000275 206.050217,204.947342 206.392120,205.522369 
	C209.615265,207.986526 212.838409,210.450684 216.025452,212.983521 
	C216.025452,212.983521 216.086349,212.935364 216.281113,213.572754 
	C218.068466,215.513580 219.855820,217.454422 221.675217,219.318039 
	C221.675217,219.318039 221.598770,219.351852 221.837524,219.981110 
	C223.132690,221.743408 224.427841,223.505707 225.753723,225.203949 
	C225.753723,225.203949 225.683563,225.215088 225.865326,225.926010 
	C228.149719,230.592361 230.434097,235.258728 232.718475,239.925079 
	C233.236603,239.737183 233.754730,239.549271 234.272858,239.361374 
	C237.391891,229.427399 238.539352,219.268631 237.351822,208.086197 
	C237.284332,207.088654 237.216843,206.091095 237.351730,204.360672 
	C235.484680,195.691513 234.165451,186.853821 231.567902,178.409378 
	C229.673172,172.249695 226.093704,166.608246 223.232239,160.797012 
	C223.232239,160.797012 223.301636,160.792206 223.170074,160.128311 
	C222.245758,158.639816 221.321426,157.151306 220.322525,155.728470 
	C220.322525,155.728470 220.420746,155.713440 220.237350,155.100845 
	C219.616592,154.267960 218.995819,153.435089 218.112930,152.667877 
	C218.112930,152.667877 218.370514,152.578140 218.177399,152.176865 
	C218.177399,152.176865 217.801193,151.938553 217.647903,151.429916 
	C217.357742,150.993256 217.067566,150.556610 216.593781,149.464264 
	C214.573547,146.839142 212.553314,144.214005 210.309067,141.794739 
	C210.309067,141.794739 210.510681,141.567078 210.273636,141.033371 
	C209.789719,140.455429 209.305801,139.877487 208.794144,139.167969 
	C208.794144,139.167969 208.670044,139.116180 208.592178,138.703262 
	C208.432755,138.433319 208.196487,138.306656 207.852081,138.193558 
	C207.852081,138.193558 207.726807,138.147522 207.611038,137.582779 
	C207.047119,137.084824 206.483185,136.586868 205.696548,135.664719 
	C205.508972,135.397293 205.269608,135.189545 204.822205,134.388779 
	C203.184265,132.651855 201.546310,130.914932 199.903778,129.092514 
	C199.903778,129.092514 199.818146,129.094055 199.552505,128.516006 
	C198.141373,127.242622 196.730240,125.969231 195.271332,124.766533 
	C195.271332,124.766533 195.353500,124.743507 195.174286,124.203781 
	C194.749237,123.851593 194.324173,123.499405 193.637360,122.721504 
	C193.430267,122.454552 193.180557,122.236389 192.642563,121.450386 
	C189.734802,118.998375 186.827057,116.546371 183.657745,113.675125 
	C183.443222,113.413177 183.176620,113.225029 182.579773,112.518112 
	C181.025986,111.391823 179.472198,110.265533 177.920746,109.075768 
	C177.920746,109.075768 177.859299,109.091805 177.629913,108.566925 
	C177.166153,108.251930 176.702377,107.936935 176.254837,107.686340 
	C176.254837,107.686340 176.312302,107.653038 176.028748,107.119255 
	C175.336578,106.751808 174.644424,106.384361 173.644669,105.530426 
	C173.039658,105.061180 172.434647,104.591934 171.571655,103.512146 
	C169.365463,102.027245 167.159271,100.542343 164.998245,98.999695 
	C164.998245,98.999695 164.947800,99.053886 164.621033,98.491898 
	C163.192810,97.528580 161.764603,96.565262 160.077225,95.871307 
	C160.077225,95.871307 160.321625,95.587967 160.010818,95.059830 
	C159.131287,94.554680 158.251740,94.049530 157.017929,93.859894 
	C157.017929,93.859894 157.363632,93.531830 157.005371,93.043015 
	C155.950790,92.446541 154.896210,91.850060 153.602646,91.022438 
	C153.602646,91.022438 153.289658,90.910278 152.856766,90.374382 
	C150.889389,89.267754 148.921997,88.161125 146.999390,87.000000 
	C146.999390,87.000000 146.951355,87.052124 146.609741,86.467201 
	C143.149643,84.532394 139.689560,82.597588 136.204056,80.766708 
	C136.204056,80.766708 136.274460,80.686150 135.909241,80.129700 
	C133.663452,78.989494 131.417648,77.849297 129.100876,76.875877 
	C129.100876,76.875877 129.200989,76.724716 128.792877,76.249374 
	C127.848213,75.862465 126.903557,75.475548 125.967911,75.025139 
	C125.967911,75.025139 125.918480,75.066002 125.565559,74.564209 
	C124.831604,74.206673 124.097649,73.849136 123.075745,73.679184 
	C123.075745,73.679184 123.364479,73.476418 122.948898,72.969276 
	C120.262680,71.693626 117.576469,70.417984 114.240479,68.795113 
	C108.373306,66.384987 102.506134,63.974854 96.638962,61.564728 
	C96.341019,62.043243 96.043076,62.521759 95.745140,63.000275 
	C97.356270,64.748680 98.967400,66.497078 100.815231,68.749512 
	C101.111252,68.963989 101.407272,69.178474 101.701546,69.326271 
	C101.701546,69.326271 101.637321,69.344276 101.841568,69.817146 
M325.177032,124.868950 
	C325.177032,124.868950 325.254211,124.683792 324.965942,124.143517 
	C324.098175,123.632721 323.230438,123.121925 322.354553,122.569122 
	C322.354553,122.569122 322.311768,122.569214 321.987976,122.008987 
	C320.013153,120.104172 318.038361,118.199356 316.063568,116.294540 
	C315.601471,116.433784 315.139374,116.573029 314.677277,116.712280 
	C314.856934,139.545441 313.668915,162.205414 306.800079,184.468552 
	C306.762451,184.592148 306.675446,184.725418 306.697327,184.837372 
	C306.744781,185.080002 306.847931,185.311722 306.712646,185.743195 
	C306.712646,185.743195 306.781433,186.025864 306.658966,186.242905 
	C306.658966,186.242905 306.638855,186.491318 306.157410,186.877487 
	C305.936859,187.634567 305.716339,188.391647 305.236725,189.717468 
	C305.038208,190.308670 304.839722,190.899872 304.129517,191.948257 
	C303.239014,194.049347 302.348511,196.150436 301.223297,198.701447 
	C301.085663,199.010254 300.947998,199.319077 300.289185,199.963516 
	C299.968048,200.691254 299.646912,201.418976 299.220184,202.226303 
	C299.220184,202.226303 299.189453,202.354874 298.677551,202.745041 
	C293.712494,208.756653 288.747467,214.768280 283.852356,220.892288 
	C283.852356,220.892288 283.817810,220.764526 283.310791,220.874786 
	C283.100647,221.138321 282.890472,221.401855 282.932037,221.871857 
	C282.932037,221.871857 282.676086,221.656418 282.009613,221.868729 
	C278.041534,224.285400 274.073456,226.702072 269.598053,229.311295 
	C269.438263,229.396042 269.278473,229.480789 268.412598,229.647415 
	C265.518524,230.694168 262.624420,231.740936 259.730347,232.787689 
	C259.794983,233.304337 259.859589,233.820984 259.924225,234.337631 
	C261.711609,234.651764 263.498962,234.965897 265.839386,235.446213 
	C266.217560,235.517609 266.595703,235.589020 267.412903,236.048370 
	C271.361816,236.464294 275.310760,236.880234 279.840240,237.410858 
	C280.233337,237.442795 280.626434,237.474731 281.613098,237.990555 
	C285.224640,238.190735 288.881714,238.845062 292.437469,238.488678 
	C298.325989,237.898499 304.149231,236.657410 310.617462,235.550430 
	C311.018768,235.420364 311.420044,235.290298 312.562347,235.271317 
	C318.676056,233.136551 324.789795,231.001770 331.417145,228.741394 
	C331.580078,228.674133 331.742981,228.606873 332.332428,228.530304 
	C332.620667,228.419983 332.808289,228.216751 332.943085,227.972137 
	C332.943085,227.972137 332.921967,227.905457 333.639740,227.837799 
	C336.449585,226.216232 339.259460,224.594681 342.723969,222.751801 
	C350.456604,217.148178 358.189270,211.544540 366.591064,205.825211 
	C368.347473,204.175140 370.103882,202.525070 372.420227,200.524185 
	C374.578491,198.317215 376.736725,196.110260 379.516846,193.648041 
	C382.328247,190.409775 385.139618,187.171509 388.343719,183.665497 
	C388.590729,183.455887 388.774719,183.200821 389.492035,182.613922 
	C390.807251,180.883224 392.122467,179.152512 393.377289,177.355392 
	C393.377289,177.355392 393.462677,177.383026 393.903076,177.177277 
	C394.178802,176.973923 394.345215,176.703339 394.354218,176.243729 
	C394.354218,176.243729 394.436737,176.345490 394.996338,176.020615 
	C396.135864,174.468491 397.275360,172.916367 398.215546,171.142487 
	C398.215546,171.142487 398.434601,171.345078 398.953278,171.044205 
	C399.302582,170.348389 399.651886,169.652573 400.395721,168.699615 
	C400.641663,168.488663 400.809631,168.227554 401.482513,167.590088 
	C402.810059,165.544388 404.137634,163.498688 405.248505,161.210693 
	C405.248505,161.210693 405.486237,161.432480 406.024780,161.103073 
	C406.904724,159.678726 407.784698,158.254379 408.843170,156.441376 
	C408.843170,156.441376 408.974762,156.034424 409.560516,155.702728 
	C410.701965,153.798615 411.843414,151.894501 413.000000,150.000000 
	C413.000000,150.000000 412.987213,149.987152 413.551392,149.670395 
	C414.157379,148.544998 414.763367,147.419601 415.291138,146.100723 
	C415.291138,146.100723 415.338257,146.303543 415.819122,146.053925 
	C415.981781,145.739380 416.144440,145.424835 416.612823,144.780472 
	C416.764221,144.518906 416.874878,144.241119 417.495300,143.588181 
	C418.553833,141.658356 419.612366,139.728531 420.845215,137.422897 
	C420.845215,137.422897 420.956970,137.024002 421.482666,136.672211 
	C421.984711,135.767670 422.486755,134.863129 423.422668,133.461655 
	C424.068481,132.058777 424.714264,130.655914 425.141846,129.166626 
	C425.141846,129.166626 425.346527,129.281860 425.931885,128.953217 
	C429.744812,121.050140 433.557739,113.147064 437.117767,104.986351 
	C437.117767,104.986351 437.358582,105.250221 437.741394,104.928795 
	C437.923187,104.631813 437.989594,104.310959 438.000397,103.995804 
	C438.000397,103.995804 437.943787,103.957924 438.478455,103.528801 
	C439.089294,102.042892 439.700134,100.556984 440.559662,98.603676 
	C440.600159,98.431900 440.640625,98.260117 441.029785,97.572105 
	C441.941711,95.571785 442.853668,93.571457 443.765625,91.571136 
	C443.350647,91.321068 442.935699,91.071007 442.520721,90.820938 
	C440.898102,92.784134 439.275513,94.747337 437.282623,96.933258 
	C437.053467,97.114677 436.867798,97.333046 436.132721,97.846420 
	C435.139252,98.942657 434.145782,100.038902 432.639343,101.502441 
	C431.453461,102.691803 430.267578,103.881157 428.404266,105.170158 
	C426.315094,107.151886 424.225891,109.133606 422.074188,111.075371 
	C422.074188,111.075371 422.107147,111.141861 421.550720,111.300728 
	C420.840149,111.849808 420.129547,112.398880 419.230652,113.110039 
	C419.230652,113.110039 419.122528,113.333733 418.505585,113.496086 
	C416.917969,114.894524 415.330322,116.292969 413.991486,117.967018 
	C413.991486,117.967018 413.743134,117.696617 413.089752,117.843407 
	C411.490601,118.954926 409.891449,120.066444 408.192047,121.185921 
	C408.192047,121.185921 408.140045,121.272011 407.470337,121.433754 
	C404.362854,123.328506 401.255341,125.223251 398.096283,127.085274 
	C398.096283,127.085274 398.092682,127.146255 397.356445,127.222832 
	C386.914612,130.291702 376.472809,133.360565 365.125824,136.419373 
	C362.412415,136.418243 359.699036,136.417114 356.479675,135.965805 
	C353.937286,135.735092 351.394928,135.504379 348.781067,135.193481 
	C348.781067,135.193481 348.674805,135.208969 348.676544,134.972733 
	C348.676544,134.972733 348.367737,134.888275 348.367737,134.888275 
	C348.367737,134.888275 348.192047,135.157349 347.615173,135.099792 
	C347.423004,135.079498 347.230804,135.059204 346.641602,134.727203 
	C346.473694,134.716309 346.305786,134.705414 345.806152,134.591537 
	C345.806152,134.591537 345.458740,134.589203 345.041809,134.230240 
	C344.683929,134.173035 344.326080,134.115829 343.992188,133.998978 
	C343.992188,133.998978 343.956665,134.054657 343.495331,133.526291 
	C339.396576,131.922638 335.297852,130.318970 331.135193,128.915833 
	C331.135193,128.915833 331.225677,128.725311 330.916595,128.158905 
	C329.605560,127.444710 328.294495,126.730515 327.000000,126.000610 
	C327.000000,126.000610 326.986481,126.018265 326.728271,125.493286 
	C326.226440,125.220146 325.724640,124.947006 325.177032,124.868950 
M114.313232,316.801849 
	C94.786987,338.674011 58.821442,399.397583 60.510426,409.360962 
	C62.658344,407.595428 64.239899,405.250671 66.205475,403.291138 
	C78.764236,390.770996 92.419159,379.668427 108.845627,372.584869 
	C136.055405,360.851288 161.352859,363.062927 183.898590,383.607788 
	C184.549988,384.201385 185.418839,384.556335 186.448837,385.182037 
	C186.694717,384.067902 186.915848,383.447418 186.954193,382.815887 
	C187.044830,381.322571 187.107330,379.822815 187.078506,378.327667 
	C186.710922,359.265045 188.153824,340.390594 193.436172,321.985626 
	C200.471100,297.474243 213.900787,278.479828 239.141876,269.881165 
	C239.931168,269.612274 240.606995,269.010376 242.132370,268.075439 
	C237.693100,266.967529 234.215118,265.691071 230.639954,265.297516 
	C224.392029,264.609772 218.087738,264.225861 211.801086,264.136963 
	C192.280655,263.860901 174.416412,269.801605 157.786514,279.545288 
	C141.300842,289.204498 127.308815,301.910248 114.313232,316.801849 
M270.157288,324.278381 
	C280.272369,351.900269 299.066833,373.068481 321.120087,391.529785 
	C344.732758,411.296539 371.314423,426.418701 399.282288,439.146729 
	C402.668579,440.687775 406.165253,441.986237 409.610748,443.397125 
	C409.478394,441.903259 408.887054,441.184479 408.216797,440.548920 
	C393.371552,426.472351 380.170227,411.150299 371.975433,392.117004 
	C362.547607,370.219971 362.502441,348.760651 375.607758,328.167206 
	C378.320007,323.905304 381.702820,320.070190 385.369110,315.261139 
	C382.808258,315.129364 381.075043,314.943359 379.344482,314.965912 
	C360.120026,315.216461 341.019257,314.039673 322.427673,308.800293 
	C298.097229,301.943634 278.999756,288.806610 270.225494,263.790039 
	C269.866394,262.766235 269.188385,261.854309 268.130554,259.928040 
	C261.717560,282.054993 262.661041,302.882568 270.157288,324.278381 
M300.924225,136.213867 
	C302.732910,97.630363 285.720764,14.039116 274.091949,4.619666 
	C273.979828,5.134374 273.794403,5.612909 273.784698,6.094992 
	C273.744354,8.092233 273.769043,10.090669 273.748505,12.088446 
	C273.541779,32.198009 271.639709,52.003090 262.870789,70.507225 
	C252.620117,92.138145 236.401535,105.948265 212.058472,109.014229 
	C208.676910,109.440132 205.299988,109.902901 201.070862,110.460716 
	C202.915161,112.434792 204.178894,113.917015 205.575043,115.261719 
	C218.944000,128.138031 231.122147,142.012314 240.359848,158.193954 
	C252.056808,178.683487 257.342926,200.094223 248.456421,223.199738 
	C247.424423,225.883011 246.280029,228.523056 244.771881,232.195892 
	C246.835175,231.303146 247.779129,231.036469 248.570862,230.531265 
	C264.432861,220.409943 277.300537,207.446793 286.175995,190.725189 
	C295.071930,173.964981 299.266388,155.915466 300.924225,136.213867 
M104.408020,395.953461 
	C103.463242,398.603638 102.245712,401.191040 101.619118,403.914429 
	C98.229866,418.645386 109.882195,431.668610 124.809715,429.465820 
	C137.709518,427.562256 146.715897,420.123962 150.928619,407.793976 
	C157.312714,389.108704 144.269196,374.490845 125.137779,378.951843 
	C116.010918,381.079987 109.314766,387.078003 104.408020,395.953461 
M77.365273,138.083725 
	C81.313202,144.414520 87.027229,148.501373 93.983353,150.874252 
	C102.555344,153.798325 110.839333,153.459778 117.657921,146.896042 
	C124.002991,140.788116 125.167717,132.891891 122.785210,124.747810 
	C119.487679,113.475960 112.146355,105.642746 100.739525,102.331512 
	C82.782310,97.118813 69.209167,109.630638 73.012634,127.860207 
	C73.708267,131.194321 75.624069,134.273880 77.365273,138.083725 
M420.058655,358.439758 
	C414.826599,353.546753 408.819916,350.319580 401.591125,349.456696 
	C387.313080,347.752380 376.207947,359.013672 378.207581,373.272522 
	C380.117401,386.890778 389.439392,396.568451 404.093170,400.145660 
	C416.525848,403.180664 427.692261,395.578064 429.385193,382.905426 
	C430.658478,373.374298 426.597168,365.790161 420.058655,358.439758 
M349.593567,99.169518 
	C347.953888,112.586349 354.531403,121.510887 367.686005,123.717789 
	C381.448975,126.026756 397.823181,112.933716 400.414917,97.547379 
	C402.969666,82.380661 392.115692,70.898781 376.881622,72.652672 
	C363.819794,74.156479 353.522644,83.885017 349.593567,99.169518 
M253.573715,58.112473 
	C254.179001,50.016327 252.287033,42.609776 247.494324,35.994080 
	C240.572784,26.439804 228.423859,24.315483 218.929840,31.010509 
	C204.172180,41.417381 203.410980,66.930641 217.520340,78.252502 
	C226.407074,85.383530 238.607483,84.664513 245.806213,76.450851 
	C250.177902,71.462791 253.108200,65.757851 253.573715,58.112473 
M54.677204,248.371689 
	C47.962639,248.320404 41.971977,250.462311 36.484734,254.252808 
	C23.488390,263.230499 23.790743,280.815430 37.244705,289.174377 
	C48.330219,296.061798 59.891136,296.429077 71.366173,290.320068 
	C85.701668,282.688293 87.292587,265.481598 74.910683,255.069778 
	C69.283836,250.338226 62.746784,248.418945 54.677204,248.371689 
M256.034454,425.542206 
	C246.595871,437.665588 245.548889,451.464081 253.106644,464.129181 
	C260.193420,476.005005 276.098694,478.584503 285.142395,469.333923 
	C293.778656,460.500183 296.203918,450.151550 293.324066,438.189362 
	C289.541229,422.476257 271.318878,411.123566 256.034454,425.542206 
M425.880127,215.373016 
	C415.572418,223.352493 416.596985,239.719360 428.194397,247.944153 
	C438.590820,255.317245 454.343689,255.691986 464.822845,248.371353 
	C478.062805,239.122101 478.465942,223.546921 465.721344,213.657181 
	C454.689087,205.096222 438.825714,205.593979 425.880127,215.373016 
z"/>
<path fill="#1663BC" opacity="1.000000" stroke="none" 
	d="
M227.250000,501.000000 
	C222.741364,488.757416 218.091354,476.634674 214.299820,464.249115 
	C204.194427,431.238464 198.105011,397.590027 200.968353,362.895996 
	C203.468964,332.597076 213.337601,305.334015 236.327728,284.238678 
	C242.207733,278.843292 249.011200,274.454285 255.390396,269.602936 
	C255.756821,269.990936 256.123230,270.378937 256.489655,270.766907 
	C254.798279,275.350494 252.814545,279.849945 251.467026,284.532501 
	C246.154739,302.992554 249.644958,320.485535 257.990936,337.248230 
	C267.457489,356.261475 281.155640,372.079834 296.157257,386.866547 
	C297.103943,387.799683 298.093689,388.691803 298.996796,389.664825 
	C299.313232,390.005737 299.429291,390.532654 299.839355,391.405762 
	C296.826630,391.837280 293.986908,392.255157 291.143860,392.649445 
	C262.566528,396.612885 244.904541,413.425140 235.468704,439.929413 
	C228.817245,458.612579 227.792435,478.000885 228.220764,497.573944 
	C228.238937,498.404510 228.158493,499.237244 228.061981,500.534485 
	C228.000000,501.000000 227.500000,501.000000 227.250000,501.000000 
z"/>
<path fill="#1F4F84" opacity="1.000000" stroke="none" 
	d="
M423.843903,259.389252 
	C447.869843,271.945435 473.800140,274.214844 500.637848,273.269470 
	C501.000000,273.750000 501.000000,274.500000 501.000000,275.625000 
	C497.413330,276.867065 493.688293,277.367493 490.262238,278.660278 
	C466.704102,287.549713 442.669739,294.643402 417.580566,298.191711 
	C419.488037,297.315521 421.563324,296.775208 423.630127,296.204193 
	C444.263763,290.503448 464.904053,284.826447 485.514954,279.044647 
	C487.376465,278.522430 489.045807,277.315430 490.804413,276.426483 
	C488.612610,275.116089 486.824341,275.151001 485.072784,274.914246 
	C471.938660,273.138489 458.631958,272.105347 445.750519,269.195984 
	C438.100281,267.468109 431.123474,262.758331 423.843903,259.389252 
z"/>
<path fill="#193F61" opacity="1.000000" stroke="none" 
	d="
M8.230093,227.862900 
	C6.089812,228.199860 3.949532,228.536804 1.404625,228.936890 
	C1.000000,228.555557 1.000000,228.111099 1.000000,227.333328 
	C3.112430,226.363007 5.224858,225.726013 7.672821,225.441925 
	C8.082269,226.484192 8.156181,227.173538 8.230093,227.862900 
z"/>
<path fill="#1663BC" opacity="1.000000" stroke="none" 
	d="
M114.555595,316.543945 
	C127.308815,301.910248 141.300842,289.204498 157.786514,279.545288 
	C174.416412,269.801605 192.280655,263.860901 211.801086,264.136963 
	C218.087738,264.225861 224.392029,264.609772 230.639954,265.297516 
	C234.215118,265.691071 237.693100,266.967529 242.132370,268.075439 
	C240.606995,269.010376 239.931168,269.612274 239.141876,269.881165 
	C213.900787,278.479828 200.471100,297.474243 193.436172,321.985626 
	C188.153824,340.390594 186.710922,359.265045 187.078506,378.327667 
	C187.107330,379.822815 187.044830,381.322571 186.954193,382.815887 
	C186.915848,383.447418 186.694717,384.067902 186.448837,385.182037 
	C185.418839,384.556335 184.549988,384.201385 183.898590,383.607788 
	C161.352859,363.062927 136.055405,360.851288 108.845627,372.584869 
	C92.419159,379.668427 78.764236,390.770996 66.205475,403.291138 
	C64.239899,405.250671 62.658344,407.595428 60.510426,409.360962 
	C58.821442,399.397583 94.786987,338.674011 114.555595,316.543945 
z"/>
<path fill="#1663BC" opacity="1.000000" stroke="none" 
	d="
M269.994781,323.921539 
	C262.661041,302.882568 261.717560,282.054993 268.130554,259.928040 
	C269.188385,261.854309 269.866394,262.766235 270.225494,263.790039 
	C278.999756,288.806610 298.097229,301.943634 322.427673,308.800293 
	C341.019257,314.039673 360.120026,315.216461 379.344482,314.965912 
	C381.075043,314.943359 382.808258,315.129364 385.369110,315.261139 
	C381.702820,320.070190 378.320007,323.905304 375.607758,328.167206 
	C362.502441,348.760651 362.547607,370.219971 371.975433,392.117004 
	C380.170227,411.150299 393.371552,426.472351 408.216797,440.548920 
	C408.887054,441.184479 409.478394,441.903259 409.610748,443.397125 
	C406.165253,441.986237 402.668579,440.687775 399.282288,439.146729 
	C371.314423,426.418701 344.732758,411.296539 321.120087,391.529785 
	C299.066833,373.068481 280.272369,351.900269 269.994781,323.921539 
z"/>
<path fill="#1663BC" opacity="1.000000" stroke="none" 
	d="
M300.867676,136.679291 
	C299.266388,155.915466 295.071930,173.964981 286.175995,190.725189 
	C277.300537,207.446793 264.432861,220.409943 248.570862,230.531265 
	C247.779129,231.036469 246.835175,231.303146 244.771881,232.195892 
	C246.280029,228.523056 247.424423,225.883011 248.456421,223.199738 
	C257.342926,200.094223 252.056808,178.683487 240.359848,158.193954 
	C231.122147,142.012314 218.944000,128.138031 205.575043,115.261719 
	C204.178894,113.917015 202.915161,112.434792 201.070862,110.460716 
	C205.299988,109.902901 208.676910,109.440132 212.058472,109.014229 
	C236.401535,105.948265 252.620117,92.138145 262.870789,70.507225 
	C271.639709,52.003090 273.541779,32.198009 273.748505,12.088446 
	C273.769043,10.090669 273.744354,8.092233 273.784698,6.094992 
	C273.794403,5.612909 273.979828,5.134374 274.091949,4.619666 
	C285.720764,14.039116 302.732910,97.630363 300.867676,136.679291 
z"/>
<path fill="#1663BC" opacity="1.000000" stroke="none" 
	d="
M8.498568,227.874695 
	C8.156181,227.173538 8.082269,226.484192 8.046101,225.446350 
	C8.083845,225.097870 8.048308,225.059982 8.439571,225.087189 
	C11.618073,223.926147 14.405312,222.737900 17.192551,221.549652 
	C17.359196,221.477615 17.525837,221.405594 18.138542,221.257599 
	C18.865654,221.146347 19.075453,221.005142 19.214005,220.758041 
	C19.603100,220.639862 19.992193,220.521683 20.927757,220.367554 
	C22.765839,219.803177 24.057449,219.274765 25.349060,218.746353 
	C25.703753,218.629562 26.058445,218.512756 26.984844,218.375092 
	C30.708870,217.168274 33.861191,215.982315 37.013508,214.796371 
	C37.355503,214.731522 37.697495,214.666656 38.670021,214.590607 
	C40.896114,213.989166 42.491684,213.398941 44.087250,212.808716 
	C44.418087,212.733582 44.748928,212.658432 45.703861,212.591583 
	C48.333305,211.935455 50.338657,211.271072 52.344009,210.606689 
	C52.695366,210.517319 53.046722,210.427948 53.988785,210.343781 
	C59.491764,209.114777 64.404037,207.880615 69.316315,206.646439 
	C69.675491,206.557785 70.034676,206.469131 70.986008,206.387878 
	C74.456955,205.790756 77.335747,205.186203 80.214546,204.581665 
	C80.603477,204.503906 80.992416,204.426132 82.006821,204.394730 
	C85.429504,203.949081 88.226730,203.457077 91.023949,202.965073 
	C125.031136,198.443542 158.436600,199.128769 189.893967,215.082840 
	C207.412384,223.967575 220.812714,237.348007 230.922256,254.100540 
	C231.301086,254.728302 231.446655,255.496841 231.934860,256.846497 
	C230.526489,256.411926 229.745087,256.280090 229.063843,255.944748 
	C207.244278,245.203629 185.895599,247.800079 164.772232,258.103394 
	C144.720047,267.884216 128.593567,282.716705 112.942375,298.176605 
	C112.368835,298.743164 111.767235,299.281281 110.042152,300.897400 
	C109.204803,280.322968 102.980255,263.013672 87.371750,249.534668 
	C86.762726,248.940567 86.502029,248.837997 86.194305,248.854935 
	C86.194305,248.854935 86.153633,248.840637 86.044540,248.604721 
	C85.738258,248.093430 85.472549,247.928329 85.138306,247.873535 
	C84.895973,247.677856 84.658272,247.476700 84.113312,246.806641 
	C82.275925,245.507217 80.750427,244.671265 79.224930,243.835297 
	C79.224937,243.835297 79.182953,243.818466 79.023727,243.505981 
	C75.947906,241.764389 73.031319,240.335251 70.114731,238.906128 
	C69.826889,238.764938 69.536697,238.628769 68.831093,238.125076 
	C67.614021,237.469528 66.809998,237.186539 66.005981,236.903534 
	C66.005981,236.903534 65.637627,236.779221 65.339783,236.512177 
	C64.336571,236.095657 63.631191,235.946182 62.925812,235.796707 
	C62.543304,235.669815 62.160797,235.542923 61.347748,235.169495 
	C60.660397,234.780838 60.394135,234.760101 60.118423,234.860718 
	C60.118423,234.860718 59.678280,234.732452 59.352203,234.466370 
	C58.327492,234.058853 57.628864,233.917404 56.930233,233.775970 
	C56.584332,233.680527 56.238426,233.585068 55.492111,233.250031 
	C54.397911,232.941025 53.704117,232.871613 53.010323,232.802216 
	C52.587509,232.736420 52.164700,232.670639 51.202652,232.338989 
	C49.640720,231.849289 48.618027,231.625473 47.595333,231.401672 
	C47.275475,231.376587 46.957989,231.333847 46.069565,231.050110 
	C42.642223,230.431335 39.788197,230.035889 36.934166,229.640427 
	C36.289486,229.553741 35.644810,229.467041 34.382786,229.148468 
	C31.174387,228.862000 28.583330,228.807404 25.992275,228.752808 
	C23.975334,228.668289 21.958393,228.583786 19.227566,228.287262 
	C15.624524,228.015991 12.735368,227.956711 9.846212,227.897430 
	C9.486488,227.893784 9.126764,227.890152 8.498568,227.874695 
z"/>
<path fill="#1663BD" opacity="1.000000" stroke="none" 
	d="
M269.118713,229.565521 
	C269.278473,229.480789 269.438263,229.396042 270.235718,229.218597 
	C274.807617,226.636078 278.741852,224.146240 282.676086,221.656403 
	C282.676086,221.656418 282.932037,221.871857 283.042847,221.684387 
	C283.375031,221.252777 283.596405,221.008652 283.817810,220.764526 
	C283.817810,220.764526 283.852356,220.892288 284.156982,220.778656 
	C291.098114,215.950928 296.793518,210.479874 299.189453,202.354874 
	C299.189453,202.354874 299.220184,202.226303 299.531189,202.022430 
	C300.164917,201.088333 300.487671,200.358124 300.810364,199.627899 
	C300.947998,199.319077 301.085663,199.010254 301.620605,198.291748 
	C302.892334,195.751724 303.766754,193.621399 304.641235,191.491058 
	C304.839722,190.899872 305.038208,190.308670 305.601593,189.243713 
	C306.190613,188.010422 306.414734,187.250870 306.638855,186.491318 
	C306.638855,186.491318 306.658966,186.242905 306.971436,185.868286 
	C308.128082,183.341263 309.202026,181.248596 309.779938,179.026932 
	C314.200439,162.033295 316.140015,144.736115 315.961060,127.184036 
	C315.940216,125.140327 316.321289,123.092522 316.550598,120.683357 
	C318.929077,121.461929 320.620422,122.015572 322.311768,122.569214 
	C322.311768,122.569214 322.354553,122.569122 322.487610,122.879425 
	C323.498505,123.687752 324.376373,124.185768 325.254211,124.683792 
	C325.254211,124.683792 325.177032,124.868950 325.356140,125.012390 
	C326.018982,125.443314 326.502716,125.730789 326.986481,126.018265 
	C326.986481,126.018265 327.000000,126.000610 327.143250,126.298698 
	C328.599548,127.306297 329.912628,128.015808 331.225677,128.725311 
	C331.225677,128.725311 331.135193,128.915833 331.345703,129.112213 
	C335.689728,130.890625 339.823181,132.472641 343.956665,134.054657 
	C343.956665,134.054657 343.992188,133.998978 344.198242,134.190338 
	C344.755798,134.450867 345.107269,134.520035 345.458740,134.589203 
	C345.458740,134.589203 345.806152,134.591537 346.030884,134.771820 
	C346.255646,134.952087 346.635132,135.124649 346.635132,135.124649 
	C346.635132,135.124649 347.038635,135.038910 347.038635,135.038910 
	C347.230804,135.059204 347.423004,135.079498 348.019318,135.188995 
	C348.423462,135.278198 348.674805,135.208969 348.674805,135.208969 
	C348.674805,135.208969 348.781067,135.193481 349.057495,135.484924 
	C351.884460,135.989578 354.435059,136.202774 356.985626,136.415985 
	C359.699036,136.417114 362.412415,136.418243 365.938110,136.588501 
	C378.104767,136.511368 388.717438,133.846375 398.092682,127.146255 
	C398.092682,127.146255 398.096283,127.085274 398.494629,127.103775 
	C401.975311,125.172180 405.057678,123.222092 408.140045,121.272003 
	C408.140045,121.272011 408.192047,121.185921 408.588440,121.180344 
	C410.570923,120.015388 412.157043,118.856003 413.743134,117.696609 
	C413.743134,117.696617 413.991486,117.967018 414.218781,117.807167 
	C416.004913,116.209457 417.563721,114.771599 419.122528,113.333740 
	C419.122528,113.333733 419.230652,113.110039 419.611359,113.057220 
	C420.697083,112.383545 421.402100,111.762695 422.107147,111.141861 
	C422.107147,111.141861 422.074188,111.075371 422.448608,111.047989 
	C424.909271,109.037247 426.995483,107.053886 429.081696,105.070518 
	C430.267578,103.881157 431.453461,102.691803 433.223663,101.245186 
	C434.780518,99.854744 435.753052,98.721565 436.725555,97.588379 
	C436.867798,97.333046 437.053467,97.114677 437.854523,96.977470 
	C439.177979,97.377235 439.929535,97.732796 440.681091,98.088348 
	C440.640625,98.260117 440.600159,98.431900 440.144409,99.036850 
	C439.134064,100.965981 438.538910,102.461952 437.943787,103.957916 
	C437.943787,103.957924 438.000397,103.995804 437.802002,104.157227 
	C437.416443,104.601425 437.334778,104.911949 437.358582,105.250221 
	C437.358582,105.250221 437.117767,104.986351 436.969360,105.324532 
	C432.996155,113.535759 429.171326,121.408813 425.346527,129.281860 
	C425.346527,129.281860 425.141846,129.166626 424.988159,129.385590 
	C424.234650,130.468964 423.634796,131.333374 422.844910,132.465759 
	C422.088898,134.163849 421.522949,135.593918 420.956970,137.024002 
	C420.956970,137.024002 420.845215,137.422897 420.462128,137.760010 
	C419.034302,140.047119 417.989532,141.997116 416.944794,143.947128 
	C416.874878,144.241119 416.764221,144.518906 416.230347,145.082291 
	C415.678009,145.690582 415.508148,145.997070 415.338257,146.303558 
	C415.338257,146.303543 415.291138,146.100723 415.041199,146.355087 
	C414.189911,147.735352 413.588562,148.861252 412.987213,149.987152 
	C412.987213,149.987152 413.000000,150.000000 412.701019,150.152130 
	C411.259613,152.214310 410.117188,154.124374 408.974762,156.034424 
	C408.974762,156.034424 408.843170,156.441376 408.448730,156.743561 
	C407.198273,158.507996 406.342255,159.970230 405.486237,161.432465 
	C405.486237,161.432480 405.248505,161.210693 405.029327,161.434784 
	C403.506653,163.744675 402.203125,165.830475 400.899628,167.916290 
	C400.809631,168.227554 400.641663,168.488663 399.939423,168.982651 
	C399.133606,169.958817 398.784119,170.651947 398.434601,171.345078 
	C398.434601,171.345078 398.215546,171.142487 397.994385,171.365234 
	C396.661072,173.173813 395.548920,174.759659 394.436768,176.345490 
	C394.436737,176.345490 394.354218,176.243729 394.162720,176.413605 
	C393.704102,176.787933 393.534576,177.054459 393.462677,177.383026 
	C393.462677,177.383026 393.377289,177.355392 393.089478,177.500824 
	C391.499634,179.397598 390.197662,181.148941 388.895660,182.900269 
	C388.774719,183.200821 388.590729,183.455887 387.829834,183.916107 
	C384.508942,187.412247 381.701965,190.657761 378.894989,193.903290 
	C376.736725,196.110260 374.578491,198.317215 371.802551,200.762146 
	C369.430603,202.647049 367.676270,204.293991 365.921936,205.940918 
	C358.189270,211.544540 350.456604,217.148178 342.032410,222.914185 
	C338.534515,224.686203 335.728241,226.295822 332.921967,227.905457 
	C332.921967,227.905457 332.943085,227.972137 332.715332,227.978180 
	C332.212982,228.084885 332.019073,228.270004 331.905884,228.539612 
	C331.742981,228.606873 331.580078,228.674133 330.759125,228.782440 
	C324.007843,230.935745 317.914612,233.047989 311.821350,235.160233 
	C311.420044,235.290298 311.018768,235.420364 309.960266,235.514038 
	C299.875214,236.153992 290.447388,236.830322 281.019531,237.506668 
	C280.626434,237.474731 280.233337,237.442795 279.255188,237.160080 
	C274.771393,236.493011 270.872620,236.076706 266.973877,235.660416 
	C266.595703,235.589020 266.217560,235.517609 265.466522,235.114532 
	C266.435364,233.043747 267.777039,231.304642 269.118713,229.565521 
z"/>
<path fill="#1663BC" opacity="1.000000" stroke="none" 
	d="
M423.639526,259.291260 
	C431.123474,262.758331 438.100281,267.468109 445.750519,269.195984 
	C458.631958,272.105347 471.938660,273.138489 485.072784,274.914246 
	C486.824341,275.151001 488.612610,275.116089 490.804413,276.426483 
	C489.045807,277.315430 487.376465,278.522430 485.514954,279.044647 
	C464.904053,284.826447 444.263763,290.503448 423.630127,296.204193 
	C421.563324,296.775208 419.488037,297.315521 417.178955,298.096802 
	C416.487396,298.416168 416.033600,298.508850 414.883057,298.453247 
	C413.028839,298.275543 411.850342,298.088684 410.716980,298.239838 
	C387.457092,301.342926 364.279175,301.562286 341.267426,296.258789 
	C335.148407,294.848541 329.074585,293.242218 322.980011,291.725922 
	C322.221924,291.432709 321.463837,291.139465 320.332123,290.516357 
	C319.305542,290.024567 318.652618,289.862640 317.999664,289.700714 
	C317.506836,289.525116 317.013977,289.349548 316.148468,288.725769 
	C312.420624,286.628357 309.065399,284.979156 305.710205,283.329987 
	C305.710205,283.329987 305.773376,283.257843 305.619019,282.995728 
	C303.360718,281.450439 301.256775,280.167267 299.152832,278.884094 
	C299.152832,278.884094 299.093079,278.912811 298.993866,278.564789 
	C296.954071,276.787903 295.013458,275.359070 293.072876,273.930237 
	C293.072876,273.930237 293.002441,273.996338 292.942383,273.629822 
	C287.950043,268.150879 283.017792,263.038483 278.085510,257.926086 
	C277.181854,256.711548 276.278168,255.497025 275.084503,253.723724 
	C274.346497,251.869949 273.898499,250.574966 273.160278,248.441040 
	C275.393799,248.971161 276.660431,249.140900 277.832397,249.569534 
	C296.379700,256.352661 314.616974,255.415070 332.477753,247.210617 
	C336.164490,245.517090 339.542480,243.151413 343.062775,241.095520 
	C343.062775,241.095505 343.030884,241.015991 343.369690,241.025269 
	C344.504913,240.427460 345.301300,239.820358 346.097687,239.213257 
	C346.097687,239.213257 346.364685,238.962402 346.907318,238.888062 
	C353.860107,234.081192 360.270264,229.348663 366.680420,224.616119 
	C366.680420,224.616119 366.851654,224.961487 367.101471,224.760681 
	C369.272949,222.754852 371.194611,220.949844 373.116272,219.144867 
	C374.119110,218.160110 375.121948,217.175354 376.628540,215.898804 
	C377.361969,215.315842 377.591614,215.024673 377.821228,214.733521 
	C377.821228,214.733505 377.803894,214.828247 378.012421,214.723328 
	C378.543671,214.196747 378.866394,213.775055 379.189148,213.353363 
	C379.189117,213.353363 379.248138,213.233261 379.642883,213.153900 
	C383.169769,210.575623 386.301941,208.076721 389.652466,205.403595 
	C391.620514,212.070175 393.410889,218.134872 395.201263,224.199585 
	C395.348846,224.597565 395.496429,224.995544 395.642761,226.006775 
	C397.404877,230.098175 399.168243,233.576309 400.931610,237.054428 
	C400.931610,237.054428 401.000000,237.002380 400.998779,237.364807 
	C401.802368,238.702011 402.607178,239.676804 403.411987,240.651596 
	C403.287231,240.763306 403.162476,240.875031 403.240631,241.156219 
	C404.580048,242.589615 405.716522,243.853516 406.853027,245.117416 
	C408.721649,246.982910 410.590271,248.848404 412.753540,251.254303 
	C413.654449,252.231140 414.260712,252.667542 414.867004,253.103943 
	C414.867004,253.103943 414.929382,253.055801 414.938385,253.264893 
	C415.310425,253.691956 415.673462,253.909912 416.036530,254.127869 
	C416.877686,254.623306 417.718872,255.118744 418.873840,256.149567 
	C420.460175,257.473297 421.732635,258.261597 423.005127,259.049927 
	C423.005127,259.049927 423.435150,259.193237 423.639526,259.291260 
z"/>
<path fill="#1663BC" opacity="1.000000" stroke="none" 
	d="
M123.031670,186.829514 
	C122.308235,186.829529 121.584801,186.829559 120.497528,186.436874 
	C120.457779,184.410873 120.781860,182.777588 121.105942,181.144302 
	C121.299896,180.875549 121.493843,180.606781 122.207794,180.097504 
	C123.391747,178.817856 124.055687,177.778687 124.719627,176.739532 
	C124.719627,176.739532 124.754066,176.799164 125.008255,176.643890 
	C125.712234,175.549698 126.162041,174.610764 126.611839,173.671829 
	C126.611839,173.671829 126.791771,173.787979 127.012054,173.610474 
	C129.166168,169.992752 131.524475,166.720612 132.964294,163.084747 
	C141.690323,141.049698 137.313919,120.268036 126.312431,100.310890 
	C124.525421,97.069176 121.866379,94.308182 119.610413,91.324989 
	C119.739563,91.218788 119.868713,91.112595 119.789268,90.843170 
	C118.919617,89.897812 118.258560,89.115692 117.597511,88.333572 
	C117.597511,88.333572 117.984520,88.097649 117.758072,87.886383 
	C116.555984,86.561905 115.580353,85.448708 114.604713,84.335510 
	C114.604713,84.335510 114.993469,84.047249 114.768143,83.861938 
	C113.544861,82.607719 112.546906,81.538795 111.548950,80.469879 
	C111.640602,80.322304 111.732262,80.174721 111.603752,79.991989 
	C110.985085,79.600349 110.586578,79.243851 110.188080,78.887352 
	C110.188080,78.887352 110.116425,78.878479 110.073639,78.515388 
	C109.017586,77.088348 108.004303,76.024406 106.991028,74.960457 
	C106.704247,74.822372 106.468666,74.623604 106.067451,73.896530 
	C105.429512,73.067375 105.008423,72.705841 104.587341,72.344299 
	C104.587341,72.344299 104.653587,72.332420 104.538635,72.142441 
	C104.156212,71.758629 103.888733,71.564789 103.621254,71.370956 
	C103.621254,71.370956 103.756889,71.242119 103.593224,71.093452 
	C103.166542,70.742859 102.903519,70.540939 102.640503,70.339012 
	C102.640503,70.339012 102.720245,70.295044 102.583084,70.112946 
	C102.176392,69.735329 101.906860,69.539803 101.637321,69.344276 
	C101.637321,69.344276 101.701546,69.326271 101.570282,69.117447 
	C101.152191,68.687576 100.865364,68.466530 100.578537,68.245483 
	C98.967400,66.497078 97.356270,64.748680 95.745140,63.000275 
	C96.043076,62.521759 96.341019,62.043243 96.638962,61.564728 
	C102.506134,63.974854 108.373306,66.384987 114.733063,69.259827 
	C117.938591,70.975166 120.651535,72.225792 123.364479,73.476418 
	C123.364479,73.476418 123.075745,73.679184 123.386780,73.855194 
	C124.438034,74.376137 125.178261,74.721069 125.918480,75.066002 
	C125.918480,75.066002 125.967911,75.025139 126.143257,75.320358 
	C127.279396,75.985291 128.240189,76.355003 129.200989,76.724716 
	C129.200989,76.724716 129.100876,76.875877 129.310883,77.087639 
	C131.772064,78.428322 134.023270,79.557236 136.274460,80.686150 
	C136.274460,80.686150 136.204056,80.766708 136.379105,81.014572 
	C140.019882,83.192337 143.485626,85.122231 146.951355,87.052124 
	C146.951355,87.052124 146.999390,87.000000 147.129669,87.328667 
	C149.269867,88.741646 151.279755,89.825966 153.289658,90.910278 
	C153.289658,90.910278 153.602646,91.022438 153.862823,91.427948 
	C155.203217,92.399582 156.283432,92.965706 157.363632,93.531830 
	C157.363632,93.531830 157.017929,93.859894 157.318542,94.001022 
	C158.519974,94.624084 159.420807,95.106026 160.321625,95.587967 
	C160.321625,95.587967 160.077225,95.871307 160.329910,96.050789 
	C162.037659,97.171478 163.492737,98.112686 164.947800,99.053886 
	C164.947800,99.053886 164.998245,98.999695 165.101807,99.337067 
	C167.413452,101.157181 169.621536,102.639931 171.829636,104.122681 
	C172.434647,104.591934 173.039658,105.061180 173.944733,106.041733 
	C174.933960,106.919708 175.623123,107.286377 176.312302,107.653038 
	C176.312302,107.653038 176.254837,107.686340 176.372833,107.911545 
	C176.946976,108.455101 177.403137,108.773453 177.859299,109.091797 
	C177.859299,109.091805 177.920746,109.075768 178.022873,109.421692 
	C179.702652,110.881973 181.280289,111.996330 182.857941,113.110695 
	C183.176620,113.225029 183.443222,113.413177 183.900238,114.202530 
	C187.057877,117.175629 189.973038,119.621323 192.888199,122.067017 
	C193.180557,122.236389 193.430267,122.454552 193.867676,123.196274 
	C194.516495,124.028526 194.934998,124.386017 195.353500,124.743507 
	C195.353500,124.743507 195.271332,124.766533 195.357910,125.064995 
	C196.902390,126.606987 198.360275,127.850517 199.818146,129.094055 
	C199.818146,129.094055 199.903778,129.092514 199.960236,129.471771 
	C201.670609,131.581161 203.324539,133.311310 204.978455,135.041458 
	C205.269608,135.189545 205.508972,135.397293 205.891724,136.151840 
	C206.633545,137.141815 207.180176,137.644669 207.726807,138.147522 
	C207.726807,138.147522 207.852081,138.193558 207.940369,138.441040 
	C208.184814,138.917526 208.398605,139.060089 208.670044,139.116180 
	C208.670044,139.116180 208.794144,139.167969 208.853790,139.530212 
	C209.445847,140.450653 209.978271,141.008865 210.510681,141.567078 
	C210.510681,141.567078 210.309067,141.794739 210.448517,142.042358 
	C212.651123,144.899963 214.714249,147.509964 216.777390,150.119965 
	C217.067566,150.556610 217.357742,150.993256 217.705551,151.817078 
	C217.865616,152.495926 218.068054,152.620560 218.370514,152.578140 
	C218.370514,152.578140 218.112930,152.667877 218.296783,152.957596 
	C219.127335,154.069351 219.774048,154.891403 220.420746,155.713440 
	C220.420746,155.713440 220.322525,155.728470 220.365036,156.048676 
	C221.372253,157.843338 222.336945,159.317764 223.301636,160.792206 
	C223.301636,160.792206 223.232239,160.797012 223.274216,161.142853 
	C223.791809,162.889603 224.100052,164.376633 224.769455,165.677872 
	C230.174561,176.184479 233.868988,187.207428 235.317947,198.976151 
	C235.574356,201.058884 236.521301,203.056580 237.149353,205.093552 
	C237.216843,206.091095 237.284332,207.088654 237.112122,208.843079 
	C235.218369,218.259567 237.447739,227.555542 232.964615,236.180435 
	C230.312103,232.185715 227.997833,228.700409 225.683563,225.215088 
	C225.683563,225.215088 225.753723,225.203949 225.706085,224.880951 
	C224.305206,222.822586 222.951981,221.087219 221.598770,219.351852 
	C221.598770,219.351852 221.675217,219.318039 221.589081,219.008224 
	C219.697403,216.777405 217.891876,214.856384 216.086349,212.935364 
	C216.086349,212.935364 216.025452,212.983521 215.938660,212.628418 
	C212.584656,209.831329 209.317429,207.389343 206.050217,204.947342 
	C206.050217,204.947342 206.001846,205.000275 205.872131,204.675171 
	C201.783615,201.968811 198.051620,199.034012 193.826492,197.302719 
	C176.095337,190.037125 157.454208,186.911392 138.384872,186.277115 
	C133.278915,186.107300 128.150024,186.626572 123.031670,186.829514 
z"/>
<path fill="#1762BA" opacity="1.000000" stroke="none" 
	d="
M104.545753,395.607422 
	C109.314766,387.078003 116.010918,381.079987 125.137779,378.951843 
	C144.269196,374.490845 157.312714,389.108704 150.928619,407.793976 
	C146.715897,420.123962 137.709518,427.562256 124.809715,429.465820 
	C109.882195,431.668610 98.229866,418.645386 101.619118,403.914429 
	C102.245712,401.191040 103.463242,398.603638 104.545753,395.607422 
z"/>
<path fill="#1762BA" opacity="1.000000" stroke="none" 
	d="
M77.170952,137.777328 
	C75.624069,134.273880 73.708267,131.194321 73.012634,127.860207 
	C69.209167,109.630638 82.782310,97.118813 100.739525,102.331512 
	C112.146355,105.642746 119.487679,113.475960 122.785210,124.747810 
	C125.167717,132.891891 124.002991,140.788116 117.657921,146.896042 
	C110.839333,153.459778 102.555344,153.798325 93.983353,150.874252 
	C87.027229,148.501373 81.313202,144.414520 77.170952,137.777328 
z"/>
<path fill="#1762BA" opacity="1.000000" stroke="none" 
	d="
M420.316406,358.686768 
	C426.597168,365.790161 430.658478,373.374298 429.385193,382.905426 
	C427.692261,395.578064 416.525848,403.180664 404.093170,400.145660 
	C389.439392,396.568451 380.117401,386.890778 378.207581,373.272522 
	C376.207947,359.013672 387.313080,347.752380 401.591125,349.456696 
	C408.819916,350.319580 414.826599,353.546753 420.316406,358.686768 
z"/>
<path fill="#1763BA" opacity="1.000000" stroke="none" 
	d="
M349.646393,98.751816 
	C353.522644,83.885017 363.819794,74.156479 376.881622,72.652672 
	C392.115692,70.898781 402.969666,82.380661 400.414917,97.547379 
	C397.823181,112.933716 381.448975,126.026756 367.686005,123.717789 
	C354.531403,121.510887 347.953888,112.586349 349.646393,98.751816 
z"/>
<path fill="#1763BA" opacity="1.000000" stroke="none" 
	d="
M253.530716,58.543350 
	C253.108200,65.757851 250.177902,71.462791 245.806213,76.450851 
	C238.607483,84.664513 226.407074,85.383530 217.520340,78.252502 
	C203.410980,66.930641 204.172180,41.417381 218.929840,31.010509 
	C228.423859,24.315483 240.572784,26.439804 247.494324,35.994080 
	C252.287033,42.609776 254.179001,50.016327 253.530716,58.543350 
z"/>
<path fill="#1763BA" opacity="1.000000" stroke="none" 
	d="
M55.110344,248.338470 
	C62.746784,248.418945 69.283836,250.338226 74.910683,255.069778 
	C87.292587,265.481598 85.701668,282.688293 71.366173,290.320068 
	C59.891136,296.429077 48.330219,296.061798 37.244705,289.174377 
	C23.790743,280.815430 23.488390,263.230499 36.484734,254.252808 
	C41.971977,250.462311 47.962639,248.320404 55.110344,248.338470 
z"/>
<path fill="#1763BB" opacity="1.000000" stroke="none" 
	d="
M256.302063,425.305786 
	C271.318878,411.123566 289.541229,422.476257 293.324066,438.189362 
	C296.203918,450.151550 293.778656,460.500183 285.142395,469.333923 
	C276.098694,478.584503 260.193420,476.005005 253.106644,464.129181 
	C245.548889,451.464081 246.595871,437.665588 256.302063,425.305786 
z"/>
<path fill="#1763BB" opacity="1.000000" stroke="none" 
	d="
M426.146484,215.131805 
	C438.825714,205.593979 454.689087,205.096222 465.721344,213.657181 
	C478.465942,223.546921 478.062805,239.122101 464.822845,248.371353 
	C454.343689,255.691986 438.590820,255.317245 428.194397,247.944153 
	C416.596985,239.719360 415.572418,223.352493 426.146484,215.131805 
z"/>
<path fill="#1F4F84" opacity="1.000000" stroke="none" 
	d="
M323.239624,291.982025 
	C329.074585,293.242218 335.148407,294.848541 341.267426,296.258789 
	C364.279175,301.562286 387.457092,301.342926 410.716980,298.239838 
	C411.850342,298.088684 413.028839,298.275543 414.534454,298.449707 
	C400.400604,299.620880 385.916290,301.490875 371.437256,301.450562 
	C355.035858,301.404907 338.813171,298.762939 323.239624,291.982025 
z"/>
<path fill="#1F4F84" opacity="1.000000" stroke="none" 
	d="
M342.701843,241.138428 
	C339.542480,243.151413 336.164490,245.517090 332.477753,247.210617 
	C314.616974,255.415070 296.379700,256.352661 277.832397,249.569534 
	C276.660431,249.140900 275.393799,248.971161 273.160278,248.441040 
	C273.898499,250.574966 274.346497,251.869949 274.888702,253.460709 
	C273.040771,251.129913 271.098602,248.503357 269.156464,245.876801 
	C269.498108,245.557205 269.839722,245.237610 270.181366,244.918030 
	C275.218231,246.761551 280.164246,248.923309 285.308289,250.391251 
	C303.611359,255.614258 320.797760,251.611069 337.415863,243.581604 
	C339.060242,242.787064 340.699341,241.981674 342.701843,241.138428 
z"/>
<path fill="#1E5087" opacity="1.000000" stroke="none" 
	d="
M119.724930,91.657639 
	C121.866379,94.308182 124.525421,97.069176 126.312431,100.310890 
	C137.313919,120.268036 141.690323,141.049698 132.964294,163.084747 
	C131.524475,166.720612 129.166168,169.992752 126.913406,173.568878 
	C129.520523,165.439011 133.436478,157.373672 135.159302,148.864304 
	C138.396774,132.873871 133.752869,117.886230 126.587753,103.642426 
	C124.574242,99.639702 122.101532,95.867966 119.724930,91.657639 
z"/>
<path fill="#1D497E" opacity="1.000000" stroke="none" 
	d="
M322.149872,122.289093 
	C320.620422,122.015572 318.929077,121.461929 316.550598,120.683357 
	C316.321289,123.092522 315.940216,125.140327 315.961060,127.184036 
	C316.140015,144.736115 314.200439,162.033295 309.779938,179.026932 
	C309.202026,181.248596 308.128082,183.341263 307.032654,185.759766 
	C306.781433,186.025864 306.712646,185.743195 306.850891,185.302994 
	C307.010345,184.634567 307.031586,184.406326 307.052826,184.178085 
	C313.668915,162.205414 314.856934,139.545441 314.677277,116.712280 
	C315.139374,116.573029 315.601471,116.433784 316.063568,116.294540 
	C318.038361,118.199356 320.013153,120.104172 322.149872,122.289093 
z"/>
<path fill="#1E5087" opacity="1.000000" stroke="none" 
	d="
M123.379303,187.020874 
	C128.150024,186.626572 133.278915,186.107300 138.384872,186.277115 
	C157.454208,186.911392 176.095337,190.037125 193.826492,197.302719 
	C198.051620,199.034012 201.783615,201.968811 205.893234,204.646667 
	C184.821030,192.276352 161.201263,188.914047 137.156723,187.302673 
	C132.698135,187.003891 128.204437,187.228928 123.379303,187.020874 
z"/>
<path fill="#1E5087" opacity="1.000000" stroke="none" 
	d="
M225.774445,225.570557 
	C227.997833,228.700409 230.312103,232.185715 232.964615,236.180435 
	C237.447739,227.555542 235.218369,218.259567 237.061523,209.216034 
	C238.539352,219.268631 237.391891,229.427399 234.272858,239.361374 
	C233.754730,239.549271 233.236603,239.737183 232.718475,239.925079 
	C230.434097,235.258728 228.149719,230.592361 225.774445,225.570557 
z"/>
<path fill="#1E5087" opacity="1.000000" stroke="none" 
	d="
M237.250549,204.727112 
	C236.521301,203.056580 235.574356,201.058884 235.317947,198.976151 
	C233.868988,187.207428 230.174561,176.184479 224.769455,165.677872 
	C224.100052,164.376633 223.791809,162.889603 223.290726,161.112228 
	C226.093704,166.608246 229.673172,172.249695 231.567902,178.409378 
	C234.165451,186.853821 235.484680,195.691513 237.250549,204.727112 
z"/>
<path fill="#1F4F84" opacity="1.000000" stroke="none" 
	d="
M395.281982,223.817917 
	C393.410889,218.134872 391.620514,212.070175 389.652466,205.403595 
	C386.301941,208.076721 383.169769,210.575623 379.708374,213.140274 
	C383.195343,209.179230 387.011475,205.152435 391.126129,200.810669 
	C392.662506,209.015732 394.012604,216.225983 395.281982,223.817917 
z"/>
<path fill="#1D497E" opacity="1.000000" stroke="none" 
	d="
M397.724548,127.184540 
	C388.717438,133.846375 378.104767,136.511368 366.390686,136.593536 
	C376.472809,133.360565 386.914612,130.291702 397.724548,127.184540 
z"/>
<path fill="#204879" opacity="1.000000" stroke="none" 
	d="
M281.316315,237.748611 
	C290.447388,236.830322 299.875214,236.153992 309.651550,235.584106 
	C304.149231,236.657410 298.325989,237.898499 292.437469,238.488678 
	C288.881714,238.845062 285.224640,238.190735 281.316315,237.748611 
z"/>
<path fill="#204879" opacity="1.000000" stroke="none" 
	d="
M298.933502,202.549957 
	C296.793518,210.479874 291.098114,215.950928 284.122009,220.722473 
	C288.747467,214.768280 293.712494,208.756653 298.933502,202.549957 
z"/>
<path fill="#1F4F84" opacity="1.000000" stroke="none" 
	d="
M366.353455,224.731598 
	C360.270264,229.348663 353.860107,234.081192 347.076294,238.817322 
	C353.143890,234.162964 359.585205,229.505020 366.353455,224.731598 
z"/>
<path fill="#1F4F84" opacity="1.000000" stroke="none" 
	d="
M278.081909,258.277954 
	C283.017792,263.038483 287.950043,268.150879 292.973480,273.592773 
	C288.069183,268.824829 283.073730,263.727356 278.081909,258.277954 
z"/>
<path fill="#1F4A7C" opacity="1.000000" stroke="none" 
	d="
M425.639221,129.117538 
	C429.171326,121.408813 432.996155,113.535759 437.095825,105.453354 
	C433.557739,113.147064 429.744812,121.050140 425.639221,129.117538 
z"/>
<path fill="#204879" opacity="1.000000" stroke="none" 
	d="
M268.765656,229.606476 
	C267.777039,231.304642 266.435364,233.043747 265.190002,235.031433 
	C263.498962,234.965897 261.711609,234.651764 259.924225,234.337631 
	C259.859589,233.820984 259.794983,233.304337 259.730347,232.787689 
	C262.624420,231.740936 265.518524,230.694168 268.765656,229.606476 
z"/>
<path fill="#204879" opacity="1.000000" stroke="none" 
	d="
M312.191833,235.215775 
	C317.914612,233.047989 324.007843,230.935745 330.502319,228.845245 
	C324.789795,231.001770 318.676056,233.136551 312.191833,235.215775 
z"/>
<path fill="#204879" opacity="1.000000" stroke="none" 
	d="
M282.342834,221.762573 
	C278.741852,224.146240 274.807617,226.636078 270.489380,229.122314 
	C274.073456,226.702072 278.041534,224.285400 282.342834,221.762573 
z"/>
<path fill="#193F61" opacity="1.000000" stroke="none" 
	d="
M68.914459,206.544586 
	C64.404037,207.880615 59.491764,209.114777 54.252567,210.277786 
	C58.787968,208.951996 63.650288,207.697372 68.914459,206.544586 
z"/>
<path fill="#1E4C82" opacity="1.000000" stroke="none" 
	d="
M379.205933,193.775665 
	C381.701965,190.657761 384.508942,187.412247 387.633453,184.049988 
	C385.139618,187.171509 382.328247,190.409775 379.205933,193.775665 
z"/>
<path fill="#1F4A7C" opacity="1.000000" stroke="none" 
	d="
M440.855438,97.830231 
	C439.929535,97.732796 439.177979,97.377235 438.039673,96.866104 
	C439.275513,94.747337 440.898102,92.784134 442.520721,90.820938 
	C442.935699,91.071007 443.350647,91.321068 443.765625,91.571136 
	C442.853668,93.571457 441.941711,95.571785 440.855438,97.830231 
z"/>
<path fill="#1E5087" opacity="1.000000" stroke="none" 
	d="
M206.221161,205.234863 
	C209.317429,207.389343 212.584656,209.831329 215.956726,212.594086 
	C212.838409,210.450684 209.615265,207.986526 206.221161,205.234863 
z"/>
<path fill="#1F4F84" opacity="1.000000" stroke="none" 
	d="
M400.879059,236.694031 
	C399.168243,233.576309 397.404877,230.098175 395.709351,226.318237 
	C397.460297,229.455505 399.143402,232.894577 400.879059,236.694031 
z"/>
<path fill="#1E5087" opacity="1.000000" stroke="none" 
	d="
M146.780548,86.759659 
	C143.485626,85.122231 140.019882,83.192337 136.391815,80.962616 
	C139.689560,82.597588 143.149643,84.532394 146.780548,86.759659 
z"/>
<path fill="#1E5087" opacity="1.000000" stroke="none" 
	d="
M192.765381,121.758698 
	C189.973038,119.621323 187.057877,117.175629 184.031006,114.412155 
	C186.827057,116.546371 189.734802,118.998375 192.765381,121.758698 
z"/>
<path fill="#1F4F84" opacity="1.000000" stroke="none" 
	d="
M305.865295,283.630463 
	C309.065399,284.979156 312.420624,286.628357 315.936829,288.569580 
	C312.738708,287.218079 309.379517,285.574493 305.865295,283.630463 
z"/>
<path fill="#1D497E" opacity="1.000000" stroke="none" 
	d="
M343.726013,133.790466 
	C339.823181,132.472641 335.689728,130.890625 331.377686,129.011963 
	C335.297852,130.318970 339.396576,131.922638 343.726013,133.790466 
z"/>
<path fill="#204879" opacity="1.000000" stroke="none" 
	d="
M267.193390,235.854401 
	C270.872620,236.076706 274.771393,236.493011 278.964905,237.102722 
	C275.310760,236.880234 271.361816,236.464294 267.193390,235.854401 
z"/>
<path fill="#1E5087" opacity="1.000000" stroke="none" 
	d="
M216.685577,149.792114 
	C214.714249,147.509964 212.651123,144.899963 210.560532,141.939423 
	C212.553314,144.214005 214.573547,146.839142 216.685577,149.792114 
z"/>
<path fill="#1D497E" opacity="1.000000" stroke="none" 
	d="
M407.805176,121.352875 
	C405.057678,123.222092 401.975311,125.172180 398.520386,127.120132 
	C401.255341,125.223251 404.362854,123.328506 407.805176,121.352875 
z"/>
<path fill="#1E5087" opacity="1.000000" stroke="none" 
	d="
M120.813309,181.277863 
	C120.781860,182.777588 120.457779,184.410873 120.137466,186.401611 
	C119.073502,186.819366 118.005768,186.879654 115.578217,187.016708 
	C117.730118,184.576218 119.125404,182.993805 120.813309,181.277863 
z"/>
<path fill="#1D497E" opacity="1.000000" stroke="none" 
	d="
M428.742981,105.120346 
	C426.995483,107.053886 424.909271,109.037247 422.479858,111.067963 
	C424.225891,109.133606 426.315094,107.151886 428.742981,105.120346 
z"/>
<path fill="#193F61" opacity="1.000000" stroke="none" 
	d="
M36.719269,214.690033 
	C33.861191,215.982315 30.708870,217.168274 27.253170,218.294708 
	C30.108202,217.018021 33.266613,215.800858 36.719269,214.690033 
z"/>
<path fill="#1E5087" opacity="1.000000" stroke="none" 
	d="
M216.183731,213.254059 
	C217.891876,214.856384 219.697403,216.777405 221.573059,219.046829 
	C219.855820,217.454422 218.068466,215.513580 216.183731,213.254059 
z"/>
<path fill="#193F61" opacity="1.000000" stroke="none" 
	d="
M90.679924,202.875244 
	C88.226730,203.457077 85.429504,203.949081 82.299576,204.341843 
	C84.756538,203.756866 87.546219,203.271133 90.679924,202.875244 
z"/>
<path fill="#1F4F84" opacity="1.000000" stroke="none" 
	d="
M372.786224,219.211609 
	C371.194611,220.949844 369.272949,222.754852 367.007385,224.591278 
	C368.594360,222.841278 370.525269,221.059830 372.786224,219.211609 
z"/>
<path fill="#1E5087" opacity="1.000000" stroke="none" 
	d="
M123.156693,73.222847 
	C120.651535,72.225792 117.938591,70.975166 115.057953,69.433434 
	C117.576469,70.417984 120.262680,71.693626 123.156693,73.222847 
z"/>
<path fill="#193F61" opacity="1.000000" stroke="none" 
	d="
M26.320086,228.998520 
	C28.583330,228.807404 31.174387,228.862000 34.060722,229.103088 
	C31.786636,229.274475 29.217266,229.259354 26.320086,228.998520 
z"/>
<path fill="#193F61" opacity="1.000000" stroke="none" 
	d="
M37.233246,229.880219 
	C39.788197,230.035889 42.642223,230.431335 45.834030,231.002213 
	C43.291981,230.825089 40.412151,230.472549 37.233246,229.880219 
z"/>
<path fill="#193F61" opacity="1.000000" stroke="none" 
	d="
M70.323929,239.169037 
	C73.031319,240.335251 75.947906,241.764389 79.012146,243.486557 
	C76.284248,242.330383 73.408691,240.881165 70.323929,239.169037 
z"/>
<path fill="#193F61" opacity="1.000000" stroke="none" 
	d="
M79.805702,204.481689 
	C77.335747,205.186203 74.456955,205.790756 71.254105,206.316345 
	C73.752312,205.618851 76.574585,205.000290 79.805702,204.481689 
z"/>
<path fill="#204879" opacity="1.000000" stroke="none" 
	d="
M333.280853,227.871613 
	C335.728241,226.295822 338.534515,224.686203 341.705078,223.024841 
	C339.259460,224.594681 336.449585,226.216232 333.280853,227.871613 
z"/>
<path fill="#1E5087" opacity="1.000000" stroke="none" 
	d="
M171.700653,103.817413 
	C169.621536,102.639931 167.413452,101.157181 165.079224,99.365936 
	C167.159271,100.542343 169.365463,102.027245 171.700653,103.817413 
z"/>
<path fill="#193F61" opacity="1.000000" stroke="none" 
	d="
M10.260031,227.995178 
	C12.735368,227.956711 15.624524,228.015991 18.796003,228.265869 
	C16.276834,228.335281 13.475343,228.214096 10.260031,227.995178 
z"/>
<path fill="#1E4C82" opacity="1.000000" stroke="none" 
	d="
M366.256500,205.883072 
	C367.676270,204.293991 369.430603,202.647049 371.522583,200.937561 
	C370.103882,202.525070 368.347473,204.175140 366.256500,205.883072 
z"/>
<path fill="#1E5087" opacity="1.000000" stroke="none" 
	d="
M204.900330,134.715118 
	C203.324539,133.311310 201.670609,131.581161 199.962524,129.514526 
	C201.546310,130.914932 203.184265,132.651855 204.900330,134.715118 
z"/>
<path fill="#1E4C82" opacity="1.000000" stroke="none" 
	d="
M401.191071,167.753189 
	C402.203125,165.830475 403.506653,163.744675 405.137665,161.555939 
	C404.137634,163.498688 402.810059,165.544388 401.191071,167.753189 
z"/>
<path fill="#193F61" opacity="1.000000" stroke="none" 
	d="
M16.832840,221.569580 
	C14.405312,222.737900 11.618073,223.926147 8.448189,225.107544 
	C10.868073,223.930313 13.670602,222.759903 16.832840,221.569580 
z"/>
<path fill="#1E5087" opacity="1.000000" stroke="none" 
	d="
M136.091858,80.407928 
	C134.023270,79.557236 131.772064,78.428322 129.346375,77.004250 
	C131.417648,77.849297 133.663452,78.989494 136.091858,80.407928 
z"/>
<path fill="#1F4F84" opacity="1.000000" stroke="none" 
	d="
M293.205261,274.232330 
	C295.013458,275.359070 296.954071,276.787903 299.002686,278.532837 
	C297.186371,277.410767 295.261993,275.972595 293.205261,274.232330 
z"/>
<path fill="#1F4F84" opacity="1.000000" stroke="none" 
	d="
M299.299377,279.183044 
	C301.256775,280.167267 303.360718,281.450439 305.612152,283.043182 
	C303.655060,282.062500 301.550476,280.772247 299.299377,279.183044 
z"/>
<path fill="#1D497E" opacity="1.000000" stroke="none" 
	d="
M356.732666,136.190887 
	C354.435059,136.202774 351.884460,135.989578 349.093201,135.525009 
	C351.394928,135.504379 353.937286,135.735092 356.732666,136.190887 
z"/>
<path fill="#1D497E" opacity="1.000000" stroke="none" 
	d="
M418.814056,113.414917 
	C417.563721,114.771599 416.004913,116.209457 414.094360,117.669365 
	C415.330322,116.292969 416.917969,114.894524 418.814056,113.414917 
z"/>
<path fill="#1E4C82" opacity="1.000000" stroke="none" 
	d="
M409.267639,155.868576 
	C410.117188,154.124374 411.259613,152.214310 412.693481,150.147339 
	C411.843414,151.894501 410.701965,153.798615 409.267639,155.868576 
z"/>
<path fill="#1E5087" opacity="1.000000" stroke="none" 
	d="
M221.718140,219.666473 
	C222.951981,221.087219 224.305206,222.822586 225.690720,224.912964 
	C224.427841,223.505707 223.132690,221.743408 221.718140,219.666473 
z"/>
<path fill="#1E4C82" opacity="1.000000" stroke="none" 
	d="
M389.193848,182.757095 
	C390.197662,181.148941 391.499634,179.397598 393.119659,177.534027 
	C392.122467,179.152512 390.807251,180.883224 389.193848,182.757095 
z"/>
<path fill="#1E5087" opacity="1.000000" stroke="none" 
	d="
M153.073212,90.642334 
	C151.279755,89.825966 149.269867,88.741646 147.107300,87.355911 
	C148.921997,88.161125 150.889389,89.267754 153.073212,90.642334 
z"/>
<path fill="#1E4C82" opacity="1.000000" stroke="none" 
	d="
M394.716553,176.183060 
	C395.548920,174.759659 396.661072,173.173813 398.094055,171.476105 
	C397.275360,172.916367 396.135864,174.468491 394.716553,176.183060 
z"/>
<path fill="#1E4C82" opacity="1.000000" stroke="none" 
	d="
M417.220032,143.767654 
	C417.989532,141.997116 419.034302,140.047119 420.375000,137.947906 
	C419.612366,139.728531 418.553833,141.658356 417.220032,143.767654 
z"/>
<path fill="#1E5087" opacity="1.000000" stroke="none" 
	d="
M182.718857,112.814407 
	C181.280289,111.996330 179.702652,110.881973 178.021713,109.453430 
	C179.472198,110.265533 181.025986,111.391823 182.718857,112.814407 
z"/>
<path fill="#1E5087" opacity="1.000000" stroke="none" 
	d="
M199.685333,128.805023 
	C198.360275,127.850517 196.902390,126.606987 195.381805,125.029648 
	C196.730240,125.969231 198.141373,127.242622 199.685333,128.805023 
z"/>
<path fill="#193F61" opacity="1.000000" stroke="none" 
	d="
M51.979797,210.509369 
	C50.338657,211.271072 48.333305,211.935455 45.953789,212.543762 
	C47.591614,211.795792 49.603596,211.103912 51.979797,210.509369 
z"/>
<path fill="#204879" opacity="1.000000" stroke="none" 
	d="
M304.385376,191.719666 
	C303.766754,193.621399 302.892334,195.751724 301.737976,198.066803 
	C302.348511,196.150436 303.239014,194.049347 304.385376,191.719666 
z"/>
<path fill="#1D497E" opacity="1.000000" stroke="none" 
	d="
M413.416443,117.770004 
	C412.157043,118.856003 410.570923,120.015388 408.638550,121.176369 
	C409.891449,120.066444 411.490601,118.954926 413.416443,117.770004 
z"/>
<path fill="#1E5087" opacity="1.000000" stroke="none" 
	d="
M164.784424,98.772888 
	C163.492737,98.112686 162.037659,97.171478 160.459488,95.916107 
	C161.764603,96.565262 163.192810,97.528580 164.784424,98.772888 
z"/>
<path fill="#1E5087" opacity="1.000000" stroke="none" 
	d="
M223.235855,160.460266 
	C222.336945,159.317764 221.372253,157.843338 220.402328,156.015854 
	C221.321426,157.151306 222.245758,158.639816 223.235855,160.460266 
z"/>
<path fill="#193F61" opacity="1.000000" stroke="none" 
	d="
M43.801510,212.720825 
	C42.491684,213.398941 40.896114,213.989166 38.926537,214.541870 
	C40.206940,213.880554 41.861355,213.256744 43.801510,212.720825 
z"/>
<path fill="#1E4C82" opacity="1.000000" stroke="none" 
	d="
M405.755493,161.267761 
	C406.342255,159.970230 407.198273,158.507996 408.359497,156.937897 
	C407.784698,158.254379 406.904724,159.678726 405.755493,161.267761 
z"/>
<path fill="#193F61" opacity="1.000000" stroke="none" 
	d="
M79.383011,244.118195 
	C80.750427,244.671265 82.275925,245.507217 83.945404,246.644287 
	C82.573296,246.097290 81.057198,245.249176 79.383011,244.118195 
z"/>
<path fill="#1F4F84" opacity="1.000000" stroke="none" 
	d="
M406.743591,244.814301 
	C405.716522,243.853516 404.580048,242.589615 403.430023,240.988129 
	C404.489075,241.937439 405.561615,243.224319 406.743591,244.814301 
z"/>
<path fill="#193F61" opacity="1.000000" stroke="none" 
	d="
M25.004854,218.677368 
	C24.057449,219.274765 22.765839,219.803177 21.217110,220.271149 
	C22.193544,219.676605 23.427095,219.142487 25.004854,218.677368 
z"/>
<path fill="#1F4F84" opacity="1.000000" stroke="none" 
	d="
M422.840088,258.769165 
	C421.732635,258.261597 420.460175,257.473297 419.059204,256.378937 
	C420.178864,256.878052 421.426971,257.683228 422.840088,258.769165 
z"/>
<path fill="#1E5087" opacity="1.000000" stroke="none" 
	d="
M107.066025,75.273064 
	C108.004303,76.024406 109.017586,77.088348 110.078102,78.479568 
	C109.130569,77.733109 108.135796,76.659386 107.066025,75.273064 
z"/>
<path fill="#1E5087" opacity="1.000000" stroke="none" 
	d="
M114.705063,84.640991 
	C115.580353,85.448708 116.555984,86.561905 117.566742,88.010284 
	C116.669708,87.212471 115.737564,86.079475 114.705063,84.640991 
z"/>
<path fill="#1E5087" opacity="1.000000" stroke="none" 
	d="
M111.681915,80.757507 
	C112.546906,81.538795 113.544861,82.607719 114.575684,84.010193 
	C113.677330,83.244209 112.746101,82.144669 111.681915,80.757507 
z"/>
<path fill="#1D497E" opacity="1.000000" stroke="none" 
	d="
M331.071136,128.442108 
	C329.912628,128.015808 328.599548,127.306297 327.134979,126.306549 
	C328.294495,126.730515 329.605560,127.444710 331.071136,128.442108 
z"/>
<path fill="#1D497E" opacity="1.000000" stroke="none" 
	d="
M436.429138,97.717407 
	C435.753052,98.721565 434.780518,99.854744 433.480164,101.061539 
	C434.145782,100.038902 435.139252,98.942657 436.429138,97.717407 
z"/>
<path fill="#1E5087" opacity="1.000000" stroke="none" 
	d="
M124.436508,176.877609 
	C124.055687,177.778687 123.391747,178.817856 122.422714,179.967834 
	C122.796211,179.057663 123.474800,178.036682 124.436508,176.877609 
z"/>
<path fill="#1E4C82" opacity="1.000000" stroke="none" 
	d="
M421.219818,136.848114 
	C421.522949,135.593918 422.088898,134.163849 422.835754,132.758148 
	C423.007416,133.174545 422.998108,133.566574 422.988800,133.958588 
	C422.486755,134.863129 421.984711,135.767670 421.219818,136.848114 
z"/>
<path fill="#1F4A7C" opacity="1.000000" stroke="none" 
	d="
M438.211121,103.743362 
	C438.538910,102.461952 439.134064,100.965981 440.020081,99.270546 
	C439.700134,100.556984 439.089294,102.042892 438.211121,103.743362 
z"/>
<path fill="#1F4A7C" opacity="1.000000" stroke="none" 
	d="
M423.205750,133.710114 
	C422.998108,133.566574 423.007416,133.174545 423.025818,132.490143 
	C423.634796,131.333374 424.234650,130.468964 425.097290,129.428802 
	C424.714264,130.655914 424.068481,132.058777 423.205750,133.710114 
z"/>
<path fill="#1E5087" opacity="1.000000" stroke="none" 
	d="
M157.184509,93.287422 
	C156.283432,92.965706 155.203217,92.399582 153.982315,91.543518 
	C154.896210,91.850060 155.950790,92.446541 157.184509,93.287422 
z"/>
<path fill="#193F61" opacity="1.000000" stroke="none" 
	d="
M47.813488,231.652374 
	C48.618027,231.625473 49.640720,231.849289 50.884506,232.296753 
	C50.080948,232.314621 49.056297,232.108856 47.813488,231.652374 
z"/>
<path fill="#1F4F84" opacity="1.000000" stroke="none" 
	d="
M403.312286,240.346512 
	C402.607178,239.676804 401.802368,238.702011 400.966431,237.393677 
	C401.694458,238.053894 402.453522,239.047668 403.312286,240.346512 
z"/>
<path fill="#1E4C82" opacity="1.000000" stroke="none" 
	d="
M413.269287,149.828766 
	C413.588562,148.861252 414.189911,147.735352 415.080322,146.451813 
	C414.763367,147.419601 414.157379,148.544998 413.269287,149.828766 
z"/>
<path fill="#1E5087" opacity="1.000000" stroke="none" 
	d="
M117.693024,88.628021 
	C118.258560,89.115692 118.919617,89.897812 119.595322,91.003464 
	C119.002823,90.525490 118.395676,89.723976 117.693024,88.628021 
z"/>
<path fill="#1D497E" opacity="1.000000" stroke="none" 
	d="
M325.110077,124.413651 
	C324.376373,124.185768 323.498505,123.687752 322.491669,122.900436 
	C323.230438,123.121925 324.098175,123.632721 325.110077,124.413651 
z"/>
<path fill="#1F4F84" opacity="1.000000" stroke="none" 
	d="
M345.786957,239.237961 
	C345.301300,239.820358 344.504913,240.427460 343.397369,241.058167 
	C343.882874,240.475403 344.679535,239.869034 345.786957,239.237961 
z"/>
<path fill="#1E5087" opacity="1.000000" stroke="none" 
	d="
M128.996933,76.487045 
	C128.240189,76.355003 127.279396,75.985291 126.138748,75.352112 
	C126.903557,75.475548 127.848213,75.862465 128.996933,76.487045 
z"/>
<path fill="#1E5087" opacity="1.000000" stroke="none" 
	d="
M126.348358,173.844421 
	C126.162041,174.610764 125.712234,175.549698 124.973816,176.643631 
	C125.151749,175.871414 125.618317,174.944214 126.348358,173.844421 
z"/>
<path fill="#1E5087" opacity="1.000000" stroke="none" 
	d="
M160.166229,95.323898 
	C159.420807,95.106026 158.519974,94.624084 157.495682,93.843262 
	C158.251740,94.049530 159.131287,94.554680 160.166229,95.323898 
z"/>
<path fill="#1D497E" opacity="1.000000" stroke="none" 
	d="
M421.828918,111.221291 
	C421.402100,111.762695 420.697083,112.383545 419.705505,112.976181 
	C420.129547,112.398880 420.840149,111.849808 421.828918,111.221291 
z"/>
<path fill="#1E5087" opacity="1.000000" stroke="none" 
	d="
M176.170532,107.386147 
	C175.623123,107.286377 174.933960,106.919708 174.098511,106.284981 
	C174.644424,106.384361 175.336578,106.751808 176.170532,107.386147 
z"/>
<path fill="#193F61" opacity="1.000000" stroke="none" 
	d="
M63.150448,236.036697 
	C63.631191,235.946182 64.336571,236.095657 65.156723,236.446838 
	C64.639351,236.524582 64.007217,236.400635 63.150448,236.036697 
z"/>
<path fill="#193F61" opacity="1.000000" stroke="none" 
	d="
M57.152893,234.013855 
	C57.628864,233.917404 58.327492,234.058853 59.132671,234.400421 
	C58.618000,234.484268 57.996780,234.368011 57.152893,234.013855 
z"/>
<path fill="#193F61" opacity="1.000000" stroke="none" 
	d="
M53.265694,232.985062 
	C53.704117,232.871613 54.397911,232.941025 55.230957,233.184265 
	C54.753830,233.294708 54.137451,233.231308 53.265694,232.985062 
z"/>
<path fill="#1F4F84" opacity="1.000000" stroke="none" 
	d="
M318.215240,289.917358 
	C318.652618,289.862640 319.305542,290.024567 320.057068,290.381287 
	C319.580719,290.428741 319.005768,290.281372 318.215240,289.917358 
z"/>
<path fill="#204879" opacity="1.000000" stroke="none" 
	d="
M306.398132,186.684402 
	C306.414734,187.250870 306.190613,188.010422 305.731140,188.959351 
	C305.716339,188.391647 305.936859,187.634567 306.398132,186.684402 
z"/>
<path fill="#204879" opacity="1.000000" stroke="none" 
	d="
M300.549805,199.795715 
	C300.487671,200.358124 300.164917,201.088333 299.583954,201.982620 
	C299.646912,201.418976 299.968048,200.691254 300.549805,199.795715 
z"/>
<path fill="#1E5087" opacity="1.000000" stroke="none" 
	d="
M220.329041,155.407135 
	C219.774048,154.891403 219.127335,154.069351 218.427856,152.924759 
	C218.995819,153.435089 219.616592,154.267960 220.329041,155.407135 
z"/>
<path fill="#1E4C82" opacity="1.000000" stroke="none" 
	d="
M398.693939,171.194641 
	C398.784119,170.651947 399.133606,169.958817 399.742157,169.111206 
	C399.651886,169.652573 399.302582,170.348389 398.693939,171.194641 
z"/>
<path fill="#1E5087" opacity="1.000000" stroke="none" 
	d="
M125.742020,74.815109 
	C125.178261,74.721069 124.438034,74.376137 123.530746,73.761398 
	C124.097649,73.849136 124.831604,74.206673 125.742020,74.815109 
z"/>
<path fill="#1E5087" opacity="1.000000" stroke="none" 
	d="
M207.668915,137.865143 
	C207.180176,137.644669 206.633545,137.141815 206.003082,136.363937 
	C206.483185,136.586868 207.047119,137.084824 207.668915,137.865143 
z"/>
<path fill="#193F61" opacity="1.000000" stroke="none" 
	d="
M66.224892,237.140961 
	C66.809998,237.186539 67.614021,237.469528 68.618561,238.012665 
	C68.027328,237.974670 67.235565,237.676514 66.224892,237.140961 
z"/>
<path fill="#1F4F84" opacity="1.000000" stroke="none" 
	d="
M414.745239,252.847260 
	C414.260712,252.667542 413.654449,252.231140 412.947723,251.522522 
	C413.439331,251.697067 414.031372,252.143814 414.745239,252.847260 
z"/>
<path fill="#1E5087" opacity="1.000000" stroke="none" 
	d="
M210.392151,141.300232 
	C209.978271,141.008865 209.445847,140.450653 208.867645,139.596008 
	C209.305801,139.877487 209.789719,140.455429 210.392151,141.300232 
z"/>
<path fill="#1E5087" opacity="1.000000" stroke="none" 
	d="
M195.263885,124.473648 
	C194.934998,124.386017 194.516495,124.028526 193.998566,123.409126 
	C194.324173,123.499405 194.749237,123.851593 195.263885,124.473648 
z"/>
<path fill="#1E5087" opacity="1.000000" stroke="none" 
	d="
M110.257889,79.153183 
	C110.586578,79.243851 110.985085,79.600349 111.473557,80.216110 
	C111.151573,80.123260 110.739639,79.771133 110.257889,79.153183 
z"/>
<path fill="#1E5087" opacity="1.000000" stroke="none" 
	d="
M104.687759,72.612717 
	C105.008423,72.705841 105.429512,73.067375 105.959900,73.689743 
	C105.642189,73.594093 105.215187,73.237610 104.687759,72.612717 
z"/>
<path fill="#1F4F84" opacity="1.000000" stroke="none" 
	d="
M415.917450,253.888901 
	C415.673462,253.909912 415.310425,253.691956 414.922424,253.300919 
	C415.197784,253.301865 415.498077,253.475891 415.917450,253.888901 
z"/>
<path fill="#1E5087" opacity="1.000000" stroke="none" 
	d="
M177.744598,108.829361 
	C177.403137,108.773453 176.946976,108.455101 176.364716,107.879349 
	C176.702377,107.936935 177.166153,108.251930 177.744598,108.829361 
z"/>
<path fill="#1F4F84" opacity="1.000000" stroke="none" 
	d="
M378.925018,213.432648 
	C378.866394,213.775055 378.543671,214.196747 377.965057,214.714600 
	C378.026428,214.377808 378.343658,213.944855 378.925018,213.432648 
z"/>
<path fill="#1D497E" opacity="1.000000" stroke="none" 
	d="
M326.857361,125.755775 
	C326.502716,125.730789 326.018982,125.443314 325.379028,124.914848 
	C325.724640,124.947006 326.226440,125.220146 326.857361,125.755775 
z"/>
<path fill="#1F4F84" opacity="1.000000" stroke="none" 
	d="
M377.548218,214.831985 
	C377.591614,215.024673 377.361969,215.315842 376.883911,215.739655 
	C376.848724,215.558365 377.061951,215.244415 377.548218,214.831985 
z"/>
<path fill="#1E5087" opacity="1.000000" stroke="none" 
	d="
M102.736115,70.576889 
	C102.903519,70.540939 103.166542,70.742859 103.541306,71.171257 
	C103.379280,71.203407 103.105507,71.009094 102.736115,70.576889 
z"/>
<path fill="#1E5087" opacity="1.000000" stroke="none" 
	d="
M100.696884,68.497498 
	C100.865364,68.466530 101.152191,68.687576 101.571152,69.150787 
	C101.407272,69.178474 101.111252,68.963989 100.696884,68.497498 
z"/>
<path fill="#1E4C82" opacity="1.000000" stroke="none" 
	d="
M393.682861,177.280151 
	C393.534576,177.054459 393.704102,176.787933 394.186768,176.474503 
	C394.345215,176.703339 394.178802,176.973923 393.682861,177.280151 
z"/>
<path fill="#1E5087" opacity="1.000000" stroke="none" 
	d="
M103.722794,71.604767 
	C103.888733,71.564789 104.156212,71.758629 104.538887,72.176086 
	C104.377502,72.212669 104.100922,72.025620 103.722794,71.604767 
z"/>
<path fill="#204879" opacity="1.000000" stroke="none" 
	d="
M306.926453,184.323318 
	C307.031586,184.406326 307.010345,184.634567 306.958740,185.205353 
	C306.847931,185.311722 306.744781,185.080002 306.697327,184.837372 
	C306.675446,184.725418 306.762451,184.592148 306.926453,184.323318 
z"/>
<path fill="#1E5087" opacity="1.000000" stroke="none" 
	d="
M101.739441,69.580711 
	C101.906860,69.539803 102.176392,69.735329 102.564674,70.154587 
	C102.402802,70.191269 102.122185,70.004204 101.739441,69.580711 
z"/>
<path fill="#1D497E" opacity="1.000000" stroke="none" 
	d="
M345.250275,134.409729 
	C345.107269,134.520035 344.755798,134.450867 344.186279,134.220154 
	C344.326080,134.115829 344.683929,134.173035 345.250275,134.409729 
z"/>
<path fill="#1F4A7C" opacity="1.000000" stroke="none" 
	d="
M437.549988,105.089508 
	C437.334778,104.911949 437.416443,104.601425 437.772125,104.142441 
	C437.989594,104.310959 437.923187,104.631813 437.549988,105.089508 
z"/>
<path fill="#193F61" opacity="1.000000" stroke="none" 
	d="
M19.015751,220.710876 
	C19.075453,221.005142 18.865654,221.146347 18.391483,221.156723 
	C18.308207,220.848160 18.514585,220.692139 19.015751,220.710876 
z"/>
<path fill="#193F61" opacity="1.000000" stroke="none" 
	d="
M86.289215,249.054169 
	C86.502029,248.837997 86.762726,248.940567 87.080215,249.351135 
	C86.864616,249.591766 86.597977,249.496368 86.289215,249.054169 
z"/>
<path fill="#193F61" opacity="1.000000" stroke="none" 
	d="
M85.213287,248.109589 
	C85.472549,247.928329 85.738258,248.093430 86.030365,248.588470 
	C85.764343,248.802307 85.485336,248.648132 85.213287,248.109589 
z"/>
<path fill="#1E5087" opacity="1.000000" stroke="none" 
	d="
M218.273956,152.377502 
	C218.068054,152.620560 217.865616,152.495926 217.782196,152.071396 
	C217.801193,151.938553 218.177399,152.176865 218.273956,152.377502 
z"/>
<path fill="#204879" opacity="1.000000" stroke="none" 
	d="
M283.564301,220.819656 
	C283.596405,221.008652 283.375031,221.252777 282.916992,221.581146 
	C282.890472,221.401855 283.100647,221.138321 283.564301,220.819656 
z"/>
<path fill="#1E4C82" opacity="1.000000" stroke="none" 
	d="
M415.578705,146.178741 
	C415.508148,145.997070 415.678009,145.690582 416.077515,145.247208 
	C416.144440,145.424835 415.981781,145.739380 415.578705,146.178741 
z"/>
<path fill="#1E5087" opacity="1.000000" stroke="none" 
	d="
M208.631104,138.909729 
	C208.398605,139.060089 208.184814,138.917526 207.956024,138.505905 
	C208.196487,138.306656 208.432755,138.433319 208.631104,138.909729 
z"/>
<path fill="#1D497E" opacity="1.000000" stroke="none" 
	d="
M346.840118,134.883057 
	C347.038635,135.038910 346.635132,135.124649 346.635132,135.124649 
	C346.635132,135.124649 346.255646,134.952087 346.196777,134.823303 
	C346.305786,134.705414 346.473694,134.716309 346.840118,134.883057 
z"/>
<path fill="#193F61" opacity="1.000000" stroke="none" 
	d="
M60.258686,235.017761 
	C60.394135,234.760101 60.660397,234.780838 61.063332,235.067139 
	C61.209461,235.211334 60.799194,235.304581 60.799194,235.304581 
	C60.799194,235.304581 60.398949,235.174805 60.258686,235.017761 
z"/>
<path fill="#1D497E" opacity="1.000000" stroke="none" 
	d="
M348.675659,135.090851 
	C348.674805,135.208969 348.423462,135.278198 348.307739,135.217773 
	C348.192047,135.157349 348.367737,134.888275 348.367737,134.888275 
	C348.367737,134.888275 348.676544,134.972733 348.675659,135.090851 
z"/>
<path fill="#204879" opacity="1.000000" stroke="none" 
	d="
M332.119141,228.534958 
	C332.019073,228.270004 332.212982,228.084885 332.691467,227.952393 
	C332.808289,228.216751 332.620667,228.419983 332.119141,228.534958 
z"/>
</svg>